<svg height="456pt" viewBox="-76 0 456 456" width="456pt" xmlns="http://www.w3.org/2000/svg"><path d="m280 48 24 24v352l-32 32h-240l-32-32v-352l24-24zm0 0" fill="#ecaf4a"/><path d="m0 112h304v272h-304zm0 0" fill="#0093b9"/><path d="m24 0h256v48h-256zm0 0" fill="#0093b9"/><g fill="#f9c468"><path d="m24 344h16v16h-16zm0 0"/><path d="m56 344h16v16h-16zm0 0"/><path d="m264 344h16v16h-16zm0 0"/><path d="m48 144h16v16h-16zm0 0"/><path d="m80 144h192v16h-192zm0 0"/><path d="m32 176h216v16h-216zm0 0"/></g><path d="m204 272c-10.625-.105469-20.800781 4.292969-28 12.113281-7.199219-7.820312-17.375-12.21875-28-12.113281-18.753906-1.039062-34.832031 13.253906-36 32 1.167969 18.746094 17.246094 33.039062 36 32 10.625.105469 20.800781-4.292969 28-12.113281 7.199219 7.820312 17.375 12.21875 28 12.113281 18.753906 1.039062 34.832031-13.253906 36-32-1.167969-18.746094-17.246094-33.039062-36-32zm0 0" fill="#ecaf4a"/><path d="m175.617188 283.769531c-7.167969-7.59375-17.175782-11.859375-27.617188-11.769531-18.753906-1.039062-34.832031 13.253906-36 32 .265625 11.328125 6.640625 21.625 16.664062 26.910156 1.136719-.964844 2.265626-1.957031 3.335938-3.03125 6.992188-6.953125 11.964844-15.675781 14.398438-25.230468 9.542968-2.453126 18.246093-7.425782 25.203124-14.402344 1.414063-1.421875 2.753907-2.917969 4.015626-4.476563zm0 0" fill="#d69f44"/><path d="m115.03125 231.710938c-7.578125 7.445312-11.648438 17.753906-11.199219 28.367187-10.613281-.449219-20.921875 3.621094-28.367187 11.203125-13.996094 12.527344-15.261719 34-2.832032 48.085938 14.085938 12.429687 35.558594 11.164062 48.085938-2.832032 7.582031-7.445312 11.652344-17.753906 11.203125-28.367187 10.613281.449219 20.921875-3.621094 28.367187-11.199219 13.992188-12.527344 15.253907-34 2.824219-48.082031-14.082031-12.429688-35.554687-11.167969-48.082031 2.824219zm0 0" fill="#ecaf4a"/></svg>