<svg id="svg" version="1.1" xmlns="http://www.w3.org/2000/svg" xmlns:xlink="http://www.w3.org/1999/xlink" width="400" height="400" viewBox="0, 0, 400,400"><g id="svgg"><path id="path0" d="M189.914 104.234 C 186.983 104.539,184.441 105.012,183.914 105.351 C 183.411 105.674,181.957 106.128,180.682 106.359 C 179.406 106.590,178.088 107.055,177.751 107.392 C 177.414 107.728,176.343 108.204,175.370 108.449 C 174.396 108.694,173.600 109.039,173.600 109.214 C 173.600 109.390,172.790 109.843,171.800 110.221 C 170.810 110.599,170.000 111.067,170.000 111.261 C 170.000 111.454,169.325 111.925,168.500 112.306 C 167.675 112.688,166.765 113.315,166.477 113.700 C 166.190 114.085,165.743 114.400,165.485 114.400 C 164.820 114.400,156.400 123.162,156.400 123.854 C 156.400 124.168,156.130 124.529,155.800 124.655 C 155.470 124.782,154.850 125.676,154.422 126.643 C 153.995 127.609,153.478 128.400,153.274 128.400 C 153.071 128.400,152.678 129.207,152.402 130.192 C 152.126 131.178,151.663 132.182,151.372 132.423 C 151.082 132.664,150.638 133.883,150.385 135.131 C 150.133 136.379,149.655 137.826,149.324 138.347 C 148.967 138.906,148.569 141.035,148.351 143.547 C 148.148 145.886,147.795 149.240,147.566 151.000 C 146.754 157.253,146.684 163.200,147.354 169.043 C 148.441 178.524,148.262 179.800,145.738 180.568 C 144.534 180.934,140.028 180.150,139.240 179.436 C 138.881 179.111,137.690 178.645,136.594 178.400 C 135.497 178.156,134.150 177.660,133.600 177.299 C 132.487 176.568,126.561 176.110,124.319 176.581 C 121.032 177.272,119.221 182.868,121.500 185.294 C 121.995 185.820,122.400 186.396,122.400 186.572 C 122.400 187.048,125.236 189.558,126.075 189.824 C 126.474 189.950,126.800 190.219,126.800 190.422 C 126.800 190.624,127.385 191.037,128.100 191.339 C 128.815 191.642,129.743 192.274,130.162 192.745 C 130.581 193.215,131.121 193.603,131.362 193.607 C 131.779 193.614,134.484 195.274,136.200 196.575 C 136.640 196.909,137.990 197.839,139.200 198.641 C 142.890 201.089,144.336 202.699,144.635 204.695 C 144.976 206.965,144.182 213.132,143.444 213.961 C 143.131 214.313,142.676 215.344,142.434 216.253 C 142.192 217.163,141.737 218.120,141.423 218.381 C 141.109 218.642,140.737 219.374,140.598 220.009 C 140.459 220.643,140.001 221.600,139.580 222.134 C 139.160 222.669,138.629 223.532,138.399 224.053 C 138.170 224.574,137.437 225.720,136.769 226.600 C 136.102 227.480,135.188 228.785,134.738 229.500 C 134.289 230.215,133.763 230.800,133.571 230.800 C 133.378 230.800,132.955 231.295,132.631 231.900 C 131.818 233.419,127.991 237.336,124.400 240.326 C 122.750 241.700,121.034 243.179,120.586 243.612 C 120.138 244.045,119.575 244.400,119.335 244.400 C 119.095 244.400,118.665 244.681,118.379 245.025 C 117.723 245.815,113.849 248.400,113.321 248.400 C 113.102 248.400,112.604 248.753,112.214 249.185 C 111.823 249.617,110.850 250.182,110.052 250.442 C 109.253 250.701,108.464 251.144,108.297 251.427 C 108.130 251.709,107.320 252.162,106.497 252.434 C 102.971 253.596,101.045 256.705,103.316 257.568 C 103.820 257.760,104.463 258.194,104.744 258.533 C 105.025 258.871,105.774 259.263,106.409 259.402 C 107.043 259.541,108.007 260.005,108.550 260.432 C 109.093 260.859,110.484 261.388,111.641 261.608 C 112.798 261.827,114.036 262.271,114.393 262.594 C 114.750 262.917,116.250 263.352,117.726 263.561 C 119.202 263.770,120.993 264.291,121.705 264.719 C 122.417 265.147,123.508 265.617,124.128 265.763 C 126.336 266.284,127.988 268.500,128.560 271.709 C 129.030 274.343,130.467 277.600,131.160 277.600 C 132.910 277.600,142.629 278.508,144.000 278.800 C 144.990 279.010,147.852 279.364,150.360 279.585 C 153.102 279.827,155.284 280.225,155.832 280.584 C 156.334 280.913,157.521 281.294,158.472 281.431 C 159.422 281.568,160.669 282.008,161.242 282.409 C 161.815 282.810,162.985 283.327,163.843 283.558 C 164.701 283.789,165.716 284.343,166.098 284.789 C 166.480 285.235,167.126 285.600,167.534 285.600 C 167.942 285.600,168.596 285.953,168.986 286.385 C 169.377 286.817,170.305 287.371,171.048 287.616 C 171.792 287.861,172.400 288.226,172.400 288.426 C 172.400 288.626,173.041 289.057,173.823 289.384 C 174.606 289.711,175.711 290.344,176.277 290.789 C 176.844 291.235,177.619 291.600,178.000 291.600 C 178.381 291.600,179.142 291.954,179.691 292.386 C 180.241 292.818,181.570 293.368,182.645 293.608 C 183.720 293.848,185.040 294.332,185.579 294.683 C 188.707 296.724,210.555 296.689,213.686 294.638 C 214.194 294.305,215.541 293.833,216.679 293.589 C 217.817 293.345,218.954 292.897,219.206 292.593 C 219.458 292.289,220.325 291.829,221.132 291.570 C 221.939 291.311,222.903 290.835,223.272 290.512 C 224.021 289.860,225.879 288.785,228.000 287.778 C 228.770 287.413,229.536 286.877,229.703 286.587 C 229.870 286.297,230.680 285.841,231.503 285.573 C 232.326 285.306,233.144 284.843,233.319 284.544 C 233.495 284.246,234.440 283.800,235.419 283.553 C 236.399 283.307,237.200 282.968,237.200 282.801 C 237.200 282.400,239.013 281.725,240.958 281.401 C 241.816 281.259,242.934 280.869,243.443 280.535 C 244.016 280.159,246.086 279.788,248.884 279.560 C 251.368 279.357,254.210 279.013,255.200 278.794 C 256.190 278.576,259.340 278.220,262.200 278.002 C 269.704 277.432,269.097 277.797,269.845 273.400 C 269.995 272.520,270.451 271.173,270.859 270.406 C 271.266 269.639,271.600 268.814,271.600 268.573 C 271.600 268.010,274.585 265.600,275.282 265.600 C 275.574 265.600,276.510 265.226,277.363 264.769 C 278.216 264.311,279.924 263.774,281.159 263.576 C 282.393 263.377,284.115 262.851,284.986 262.407 C 285.857 261.963,287.047 261.600,287.631 261.600 C 288.214 261.600,289.124 261.260,289.652 260.845 C 290.180 260.429,291.265 259.909,292.062 259.689 C 292.859 259.469,293.873 258.954,294.315 258.545 C 294.757 258.135,295.587 257.376,296.159 256.858 C 297.525 255.622,297.472 255.094,295.900 254.250 C 295.185 253.867,293.700 253.033,292.600 252.397 C 291.500 251.761,289.835 250.879,288.900 250.435 C 287.965 249.991,287.200 249.478,287.200 249.295 C 287.200 249.111,286.596 248.742,285.857 248.475 C 285.119 248.208,284.191 247.632,283.795 247.195 C 283.400 246.758,282.835 246.400,282.541 246.400 C 282.247 246.400,281.782 246.040,281.507 245.600 C 281.232 245.160,280.798 244.800,280.542 244.800 C 279.991 244.800,277.357 242.725,274.706 240.203 C 273.664 239.211,272.704 238.400,272.574 238.400 C 272.332 238.400,270.784 236.786,267.600 233.212 C 264.213 229.410,263.799 228.907,263.111 227.754 C 261.991 225.876,261.450 225.069,260.534 223.913 C 260.058 223.311,259.552 222.290,259.409 221.643 C 259.267 220.996,258.902 220.371,258.597 220.254 C 258.291 220.137,257.838 219.286,257.590 218.362 C 257.341 217.439,256.810 216.215,256.409 215.642 C 256.008 215.069,255.568 213.822,255.431 212.872 C 255.294 211.921,254.903 210.718,254.562 210.198 C 253.725 208.920,253.731 204.961,254.571 204.032 C 254.917 203.650,255.200 203.171,255.200 202.969 C 255.201 202.482,258.182 199.600,258.685 199.600 C 258.900 199.600,259.419 199.215,259.838 198.745 C 260.257 198.274,261.185 197.642,261.900 197.339 C 262.615 197.037,263.200 196.624,263.200 196.422 C 263.200 196.219,263.605 195.927,264.100 195.772 C 264.595 195.617,265.472 195.110,266.050 194.645 C 266.627 194.180,267.698 193.440,268.430 193.000 C 278.089 187.194,281.017 181.346,276.265 177.348 C 274.750 176.073,267.487 176.034,265.600 177.290 C 265.050 177.656,263.703 178.156,262.606 178.400 C 261.510 178.645,260.310 179.120,259.939 179.455 C 258.774 180.509,253.859 181.062,252.657 180.274 L 251.651 179.615 251.515 161.508 C 251.396 145.667,251.297 143.250,250.724 142.200 C 250.364 141.540,249.866 139.656,249.618 138.012 C 249.369 136.369,248.905 134.738,248.588 134.386 C 248.270 134.035,247.893 133.129,247.751 132.374 C 247.609 131.618,247.160 130.632,246.754 130.183 C 246.348 129.733,245.805 128.761,245.548 128.023 C 245.291 127.284,244.792 126.359,244.440 125.967 C 244.088 125.574,243.260 124.513,242.600 123.607 C 240.620 120.890,237.638 117.658,235.291 115.682 C 233.247 113.962,231.091 112.400,230.761 112.400 C 230.579 112.400,230.109 112.071,229.716 111.669 C 229.322 111.268,228.370 110.700,227.600 110.408 C 226.830 110.116,226.013 109.651,225.784 109.376 C 225.555 109.101,224.618 108.674,223.702 108.427 C 222.786 108.181,221.790 107.733,221.490 107.433 C 221.189 107.132,219.876 106.671,218.572 106.407 C 217.267 106.143,215.781 105.660,215.270 105.334 C 213.005 103.892,199.036 103.286,189.914 104.234 " stroke="none" fill="#fafafa" fill-rule="evenodd"></path><path id="path1" d="M191.600 91.242 C 190.830 91.440,188.176 91.867,185.702 92.190 C 183.229 92.514,180.799 93.039,180.302 93.358 C 179.806 93.678,178.335 94.132,177.033 94.368 C 175.731 94.604,174.381 95.055,174.033 95.369 C 173.685 95.683,172.545 96.155,171.500 96.417 C 170.455 96.680,169.600 97.030,169.600 97.194 C 169.600 97.359,168.745 97.887,167.700 98.367 C 165.077 99.574,163.107 100.660,162.423 101.279 C 162.106 101.565,161.279 102.160,160.586 102.600 C 156.957 104.903,156.400 105.309,156.400 105.652 C 156.400 105.857,156.090 106.144,155.711 106.289 C 155.332 106.435,153.549 108.094,151.747 109.977 C 147.262 114.665,146.800 115.184,146.800 115.529 C 146.800 115.695,146.267 116.453,145.616 117.215 C 144.965 117.977,144.425 118.803,144.416 119.051 C 144.407 119.299,144.105 119.747,143.745 120.045 C 143.385 120.344,142.770 121.336,142.378 122.250 C 141.987 123.164,141.483 124.025,141.259 124.163 C 141.036 124.302,140.566 125.401,140.215 126.607 C 139.864 127.813,139.426 128.800,139.241 128.800 C 139.056 128.800,138.687 129.925,138.421 131.300 C 138.155 132.675,137.676 134.207,137.357 134.705 C 137.037 135.202,136.526 137.722,136.222 140.305 C 135.917 142.887,135.466 145.524,135.220 146.164 C 134.973 146.804,134.664 150.854,134.533 155.164 C 134.244 164.657,134.368 164.399,130.303 163.900 C 127.046 163.500,120.690 164.139,119.132 165.023 C 118.619 165.314,117.589 165.834,116.843 166.180 C 116.096 166.525,115.074 167.211,114.572 167.704 C 114.069 168.197,113.467 168.780,113.233 169.000 C 112.130 170.038,110.823 172.035,109.637 174.495 C 108.103 177.678,107.843 187.047,109.243 188.659 C 109.597 189.067,110.086 189.994,110.330 190.720 C 110.958 192.593,116.521 199.200,117.470 199.200 C 117.610 199.200,118.369 199.695,119.156 200.300 C 120.693 201.481,121.114 201.765,123.170 203.000 C 123.902 203.440,124.999 204.205,125.608 204.700 C 126.217 205.195,126.870 205.607,127.058 205.615 C 129.777 205.734,131.566 211.200,129.764 213.883 C 129.351 214.497,128.724 215.630,128.370 216.400 C 128.016 217.170,127.428 218.047,127.063 218.349 C 126.699 218.651,126.400 219.136,126.400 219.426 C 126.400 219.717,126.085 220.190,125.700 220.477 C 125.315 220.765,124.746 221.492,124.436 222.093 C 123.446 224.013,117.065 230.305,112.971 233.400 C 112.389 233.840,111.324 234.695,110.604 235.300 C 109.884 235.905,109.121 236.400,108.909 236.400 C 108.698 236.400,108.001 236.850,107.362 237.400 C 106.723 237.949,105.956 238.399,105.658 238.400 C 105.360 238.400,104.581 238.850,103.927 239.400 C 103.273 239.950,102.517 240.400,102.247 240.400 C 101.977 240.400,101.158 240.841,100.428 241.379 C 99.699 241.918,98.584 242.472,97.951 242.611 C 97.318 242.750,96.800 243.025,96.800 243.222 C 96.800 243.418,96.215 243.882,95.500 244.251 C 94.785 244.621,93.390 245.786,92.400 246.841 C 85.994 253.665,89.319 265.014,99.056 269.561 C 99.967 269.986,100.829 270.524,100.973 270.756 C 101.116 270.988,101.991 271.380,102.917 271.626 C 103.843 271.873,104.877 272.322,105.216 272.623 C 105.555 272.925,106.815 273.380,108.016 273.633 C 109.217 273.886,110.406 274.259,110.658 274.460 C 110.909 274.662,112.066 275.136,113.229 275.514 C 115.565 276.272,117.401 278.365,118.400 281.408 C 118.687 282.284,119.255 283.235,119.661 283.523 C 120.068 283.810,120.400 284.221,120.400 284.436 C 120.400 285.025,123.095 287.600,123.711 287.600 C 124.007 287.600,124.643 287.966,125.123 288.414 C 126.442 289.643,132.976 290.756,142.408 291.359 C 148.111 291.724,150.979 292.071,151.808 292.496 C 152.463 292.833,154.032 293.321,155.293 293.581 C 156.554 293.841,157.699 294.237,157.837 294.460 C 157.975 294.683,158.833 295.213,159.744 295.637 C 160.655 296.061,162.210 296.945,163.200 297.600 C 164.190 298.255,165.765 299.147,166.700 299.582 C 167.635 300.016,168.400 300.544,168.400 300.754 C 168.400 300.964,168.918 301.250,169.551 301.389 C 170.184 301.528,171.299 302.082,172.028 302.621 C 172.758 303.159,173.635 303.601,173.978 303.601 C 174.320 303.602,175.185 303.960,175.900 304.396 C 176.616 304.832,178.056 305.394,179.100 305.644 C 180.145 305.895,181.399 306.347,181.886 306.650 C 182.373 306.952,184.792 307.482,187.261 307.826 C 189.730 308.170,192.064 308.620,192.449 308.826 C 193.366 309.317,205.256 309.311,206.550 308.819 C 207.102 308.609,209.498 308.165,211.876 307.831 C 214.329 307.487,216.886 306.873,217.785 306.412 C 218.656 305.966,219.847 305.600,220.431 305.600 C 221.014 305.600,221.936 305.251,222.478 304.825 C 223.020 304.398,223.989 303.928,224.632 303.779 C 225.274 303.630,226.430 303.119,227.200 302.645 C 229.606 301.161,230.948 300.426,232.500 299.741 C 233.325 299.377,234.000 298.920,234.000 298.725 C 234.000 298.531,234.765 298.009,235.700 297.565 C 236.635 297.121,238.300 296.239,239.400 295.603 C 242.139 294.022,243.117 293.600,244.048 293.600 C 244.486 293.600,245.689 293.214,246.722 292.743 C 248.273 292.035,249.994 291.797,256.600 291.378 C 265.397 290.821,273.168 289.557,273.706 288.597 C 273.889 288.269,274.309 288.000,274.637 288.000 C 275.516 288.000,279.026 284.575,279.784 282.978 C 280.143 282.220,280.601 281.600,280.801 281.600 C 281.000 281.600,281.288 280.936,281.440 280.125 C 281.754 278.453,284.298 275.600,285.475 275.600 C 285.880 275.600,286.844 275.261,287.617 274.847 C 288.390 274.433,290.039 273.883,291.281 273.625 C 292.522 273.367,293.750 272.901,294.009 272.589 C 294.268 272.277,295.082 271.908,295.817 271.770 C 296.552 271.633,297.739 271.088,298.454 270.560 C 299.170 270.032,299.962 269.600,300.214 269.600 C 301.174 269.600,306.532 264.713,308.069 262.436 C 310.335 259.078,310.539 251.276,308.419 249.021 C 307.969 248.541,307.600 247.976,307.600 247.765 C 307.600 246.946,302.666 243.256,300.183 242.219 C 299.432 241.905,298.589 241.448,298.309 241.203 C 297.730 240.696,295.788 239.624,293.300 238.439 C 292.365 237.993,291.600 237.454,291.600 237.241 C 291.600 237.028,291.214 236.732,290.743 236.582 C 288.320 235.813,279.748 228.240,275.742 223.329 C 271.973 218.709,271.611 218.222,271.605 217.778 C 271.602 217.545,271.159 216.758,270.621 216.028 C 270.082 215.299,269.531 214.196,269.395 213.578 C 269.260 212.961,268.890 212.241,268.574 211.979 C 266.712 210.433,268.794 207.350,273.559 204.600 C 274.702 203.940,276.124 202.995,276.719 202.500 C 277.314 202.006,277.996 201.601,278.237 201.600 C 279.088 201.600,287.600 193.670,287.600 192.878 C 287.600 192.632,287.944 192.109,288.365 191.716 C 288.785 191.322,289.429 189.830,289.796 188.400 C 290.162 186.970,290.628 185.629,290.831 185.420 C 291.311 184.925,291.311 179.075,290.831 178.580 C 290.628 178.371,290.162 177.030,289.796 175.600 C 289.429 174.170,288.785 172.678,288.365 172.284 C 287.944 171.891,287.600 171.392,287.600 171.176 C 287.600 170.618,283.176 166.400,282.592 166.400 C 282.326 166.400,281.625 166.020,281.034 165.556 C 279.526 164.369,273.620 163.524,269.145 163.853 C 264.379 164.205,264.624 164.787,264.003 151.600 C 263.660 144.302,263.320 140.502,262.911 139.400 C 262.584 138.520,262.074 136.509,261.776 134.932 C 261.479 133.354,260.867 131.377,260.418 130.537 C 259.968 129.698,259.600 128.628,259.600 128.160 C 259.600 127.691,259.269 126.879,258.864 126.354 C 258.459 125.829,257.944 124.860,257.720 124.200 C 257.495 123.539,256.836 122.299,256.256 121.444 C 255.675 120.588,255.200 119.643,255.200 119.344 C 255.200 119.045,255.038 118.800,254.840 118.800 C 254.641 118.800,254.125 118.215,253.691 117.500 C 252.215 115.063,246.804 109.140,243.698 106.561 C 241.994 105.145,240.240 103.664,239.800 103.269 C 239.360 102.874,238.550 102.334,238.000 102.069 C 237.450 101.804,236.190 101.050,235.200 100.394 C 234.210 99.738,232.545 98.817,231.500 98.347 C 230.455 97.877,229.600 97.359,229.600 97.194 C 229.600 97.030,228.745 96.680,227.700 96.417 C 226.655 96.155,225.515 95.683,225.167 95.369 C 224.819 95.055,223.469 94.604,222.167 94.368 C 220.865 94.132,219.394 93.677,218.897 93.358 C 218.400 93.039,215.880 92.514,213.297 92.193 C 210.714 91.871,207.971 91.426,207.203 91.204 C 205.501 90.712,193.548 90.741,191.600 91.242 M205.734 101.986 C 207.677 102.190,209.477 102.530,209.734 102.741 C 209.990 102.951,211.688 103.302,213.508 103.521 C 215.327 103.739,217.250 104.203,217.782 104.552 C 218.314 104.900,219.613 105.379,220.668 105.615 C 221.724 105.852,222.860 106.275,223.194 106.555 C 223.527 106.835,224.655 107.380,225.700 107.765 C 226.745 108.151,227.600 108.617,227.600 108.802 C 227.600 108.987,228.243 109.350,229.028 109.609 C 229.813 109.868,230.546 110.316,230.657 110.604 C 230.767 110.892,231.290 111.236,231.818 111.369 C 232.932 111.648,233.954 112.525,238.715 117.283 C 242.662 121.227,243.706 122.419,244.936 124.376 C 247.016 127.689,247.589 128.660,248.016 129.600 C 248.267 130.150,248.905 131.437,249.436 132.459 C 249.966 133.481,250.400 134.796,250.400 135.381 C 250.400 135.966,250.773 137.264,251.230 138.266 C 252.717 141.530,254.105 162.322,253.239 168.351 C 252.581 172.927,252.591 178.816,253.257 179.267 C 253.997 179.768,257.194 179.330,257.977 178.621 C 258.327 178.304,259.476 177.852,260.532 177.615 C 261.587 177.379,262.901 176.890,263.451 176.530 C 264.001 176.170,265.744 175.644,267.325 175.363 C 268.906 175.081,270.708 174.726,271.329 174.573 C 271.950 174.421,272.850 174.479,273.329 174.704 C 273.808 174.928,274.965 175.319,275.900 175.572 C 277.268 175.942,277.776 176.352,278.500 177.670 C 278.995 178.571,279.622 179.689,279.894 180.154 C 281.862 183.522,275.442 191.711,268.700 194.434 C 268.095 194.678,267.600 195.028,267.600 195.210 C 267.600 195.393,266.880 195.860,266.000 196.248 C 265.120 196.636,264.400 197.095,264.400 197.267 C 264.400 197.439,263.815 197.879,263.100 198.246 C 262.385 198.613,261.260 199.336,260.600 199.853 C 259.940 200.370,259.040 201.066,258.600 201.399 C 258.160 201.733,257.508 202.229,257.151 202.503 C 255.465 203.794,255.666 212.523,257.422 214.279 C 257.739 214.596,258.102 215.338,258.227 215.928 C 258.489 217.158,258.799 217.825,260.399 220.600 C 261.034 221.700,261.878 223.230,262.276 224.000 C 262.674 224.770,263.315 225.635,263.700 225.923 C 264.085 226.210,264.400 226.636,264.400 226.870 C 264.400 227.103,264.940 227.948,265.601 228.747 C 266.261 229.546,267.206 230.697,267.701 231.304 C 269.272 233.232,275.539 239.354,277.217 240.600 C 278.106 241.260,279.272 242.160,279.807 242.600 C 280.723 243.353,281.344 243.800,284.800 246.195 C 285.570 246.729,286.785 247.434,287.500 247.762 C 288.215 248.091,288.800 248.534,288.800 248.748 C 288.800 248.962,289.318 249.250,289.951 249.389 C 290.584 249.528,291.699 250.082,292.428 250.621 C 293.158 251.159,293.961 251.600,294.212 251.600 C 295.500 251.600,298.400 254.522,298.400 255.819 C 298.400 257.138,295.125 260.400,293.802 260.400 C 293.530 260.400,292.872 260.743,292.340 261.161 C 291.807 261.580,290.568 262.135,289.586 262.394 C 288.604 262.653,287.383 263.132,286.874 263.459 C 286.364 263.786,284.863 264.228,283.537 264.441 C 282.212 264.655,280.739 265.072,280.264 265.370 C 279.789 265.667,278.470 266.125,277.333 266.387 C 276.196 266.649,274.953 267.210,274.571 267.632 C 274.189 268.054,273.646 268.400,273.365 268.400 C 272.804 268.400,272.573 268.989,272.186 271.400 C 271.004 278.779,269.240 279.763,256.176 280.333 C 249.751 280.614,247.455 280.855,246.499 281.349 C 245.810 281.705,244.047 282.167,242.581 282.374 C 241.116 282.582,239.618 283.022,239.253 283.352 C 238.888 283.682,237.737 284.180,236.695 284.459 C 235.653 284.738,234.800 285.115,234.800 285.297 C 234.800 285.479,234.032 285.957,233.094 286.360 C 232.156 286.762,231.144 287.385,230.845 287.745 C 230.547 288.105,229.992 288.400,229.613 288.400 C 229.234 288.400,228.613 288.744,228.233 289.163 C 227.853 289.583,226.970 290.152,226.271 290.428 C 225.572 290.704,224.640 291.241,224.200 291.622 C 223.760 292.002,222.830 292.434,222.133 292.581 C 221.437 292.728,220.777 293.083,220.667 293.368 C 220.558 293.654,219.626 294.100,218.597 294.359 C 217.568 294.618,216.314 295.100,215.811 295.430 C 215.308 295.759,213.750 296.209,212.348 296.430 C 210.947 296.651,208.990 297.139,208.000 297.516 C 205.365 298.518,192.835 298.493,190.829 297.481 C 190.075 297.101,188.455 296.677,187.229 296.539 C 186.003 296.400,184.191 295.862,183.203 295.343 C 182.215 294.825,181.035 294.400,180.581 294.400 C 180.127 294.400,179.145 293.950,178.400 293.400 C 177.655 292.850,176.733 292.400,176.353 292.400 C 175.973 292.400,175.153 291.988,174.531 291.484 C 173.909 290.981,172.905 290.355,172.300 290.093 C 171.695 289.831,171.200 289.453,171.200 289.252 C 171.200 289.051,170.717 288.766,170.127 288.617 C 169.537 288.469,168.533 287.910,167.896 287.374 C 167.260 286.838,166.517 286.400,166.247 286.400 C 165.977 286.400,165.145 285.950,164.400 285.400 C 163.655 284.850,162.654 284.400,162.176 284.400 C 161.699 284.400,160.860 284.048,160.313 283.617 C 159.752 283.176,158.112 282.642,156.559 282.395 C 155.041 282.153,153.260 281.679,152.600 281.342 C 151.722 280.893,149.201 280.632,143.200 280.369 C 130.414 279.808,128.090 278.725,127.567 273.082 C 127.272 269.911,124.405 266.404,122.101 266.396 C 121.496 266.394,120.100 265.950,119.000 265.409 C 117.900 264.868,116.363 264.419,115.585 264.413 C 114.806 264.406,113.456 264.034,112.585 263.586 C 111.713 263.138,110.220 262.573,109.266 262.330 C 108.312 262.087,107.442 261.654,107.333 261.368 C 107.223 261.083,106.564 260.724,105.869 260.571 C 100.139 259.313,99.637 254.087,105.000 251.523 C 105.880 251.103,107.500 250.239,108.600 249.603 C 109.700 248.967,111.224 248.122,111.988 247.724 C 112.751 247.326,113.696 246.685,114.088 246.300 C 114.479 245.915,114.955 245.600,115.145 245.600 C 115.335 245.600,116.190 245.066,117.045 244.414 C 117.900 243.761,119.026 242.906,119.546 242.514 C 121.805 240.809,123.178 239.553,127.166 235.541 C 132.438 230.239,133.600 228.958,133.600 228.448 C 133.600 228.227,133.915 227.810,134.300 227.523 C 134.685 227.235,135.312 226.325,135.694 225.500 C 136.075 224.675,136.556 224.000,136.763 224.000 C 136.969 224.000,137.341 223.384,137.589 222.632 C 137.838 221.880,138.293 221.055,138.600 220.800 C 138.907 220.545,139.374 219.675,139.638 218.868 C 139.901 218.061,140.450 216.971,140.858 216.446 C 141.266 215.921,141.600 215.104,141.600 214.631 C 141.600 214.157,141.980 213.056,142.444 212.185 C 143.004 211.132,143.357 209.559,143.495 207.500 L 143.703 204.400 141.639 202.400 C 140.503 201.300,139.410 200.400,139.208 200.400 C 139.006 200.400,138.390 199.995,137.838 199.500 C 137.287 199.005,135.904 198.060,134.766 197.400 C 133.628 196.740,132.353 195.878,131.932 195.484 C 131.512 195.090,130.770 194.591,130.284 194.374 C 129.463 194.008,128.020 193.062,125.615 191.315 C 120.722 187.760,118.961 184.584,119.546 180.370 C 120.117 176.258,124.618 173.786,129.367 174.977 C 130.733 175.320,132.297 175.600,132.841 175.600 C 133.385 175.600,134.544 175.967,135.415 176.415 C 136.287 176.863,137.807 177.413,138.794 177.638 C 139.780 177.862,140.860 178.291,141.194 178.591 C 142.004 179.321,143.790 179.739,144.903 179.460 L 145.806 179.233 145.803 162.917 C 145.800 148.538,145.881 146.386,146.479 144.800 C 146.852 143.810,147.331 141.599,147.542 139.886 C 147.753 138.174,148.185 136.374,148.502 135.886 C 148.819 135.399,149.304 134.054,149.580 132.899 C 149.855 131.743,150.257 130.688,150.473 130.555 C 150.689 130.421,151.216 129.567,151.644 128.656 C 152.841 126.109,154.263 123.909,154.965 123.516 C 155.314 123.320,155.600 122.951,155.600 122.694 C 155.600 122.438,155.931 121.862,156.335 121.414 C 157.863 119.722,164.366 113.371,165.264 112.693 C 167.118 111.294,170.583 109.200,171.044 109.200 C 171.303 109.200,171.614 108.939,171.737 108.621 C 171.859 108.302,172.727 107.835,173.665 107.582 C 174.604 107.330,175.807 106.780,176.340 106.361 C 176.872 105.943,177.745 105.600,178.279 105.600 C 178.813 105.600,180.183 105.170,181.325 104.644 C 182.500 104.103,184.607 103.574,186.183 103.425 C 187.713 103.279,189.188 102.976,189.461 102.749 C 190.621 101.787,199.762 101.358,205.734 101.986 " stroke="none" fill="#0a0a07" fill-rule="evenodd"></path><path id="path2" d="M0.000 200.000 L 0.000 400.000 200.000 400.000 L 400.000 400.000 400.000 200.000 L 400.000 0.000 200.000 0.000 L 0.000 0.000 0.000 200.000 M213.859 90.448 C 214.300 90.834,215.947 91.264,217.924 91.508 C 219.752 91.735,221.552 92.188,221.924 92.515 C 222.296 92.843,223.230 93.232,224.000 93.380 C 225.937 93.753,227.600 94.429,227.600 94.844 C 227.600 95.035,228.339 95.309,229.242 95.453 C 230.145 95.597,231.341 96.140,231.900 96.658 C 232.459 97.176,233.217 97.600,233.583 97.600 C 233.949 97.600,234.598 97.922,235.025 98.315 C 235.451 98.708,236.385 99.270,237.100 99.563 C 237.815 99.857,238.400 100.244,238.400 100.423 C 238.400 100.602,239.120 101.153,240.000 101.648 C 240.880 102.143,241.600 102.682,241.600 102.847 C 241.600 103.011,241.949 103.257,242.375 103.392 C 242.801 103.527,244.164 104.620,245.402 105.819 C 246.640 107.019,247.822 108.000,248.027 108.000 C 248.232 108.000,248.400 108.182,248.400 108.406 C 248.400 108.629,249.211 109.664,250.203 110.706 C 252.725 113.357,254.800 115.991,254.800 116.542 C 254.800 116.798,255.160 117.232,255.600 117.507 C 256.040 117.782,256.400 118.277,256.400 118.607 C 256.400 118.938,256.759 119.515,257.198 119.891 C 257.636 120.266,258.199 121.210,258.447 121.987 C 258.695 122.764,259.212 123.760,259.596 124.200 C 259.979 124.640,260.409 125.618,260.551 126.374 C 260.693 127.129,261.087 128.054,261.425 128.428 C 261.764 128.803,262.239 130.299,262.480 131.754 C 262.721 133.209,263.058 134.400,263.228 134.400 C 263.779 134.400,264.334 136.914,264.596 140.600 C 264.737 142.580,265.122 144.931,265.451 145.824 C 265.849 146.901,266.143 149.856,266.325 154.594 L 266.600 161.740 271.658 161.770 C 275.749 161.794,276.857 161.925,277.458 162.456 C 277.866 162.818,278.983 163.241,279.940 163.398 C 280.897 163.555,281.972 164.025,282.329 164.442 C 282.686 164.859,283.197 165.200,283.465 165.200 C 284.266 165.200,287.745 168.382,288.539 169.841 C 288.946 170.589,289.427 171.200,289.608 171.200 C 289.790 171.200,290.159 171.871,290.430 172.690 C 290.700 173.510,291.254 174.725,291.659 175.390 C 292.744 177.169,292.756 187.023,291.676 188.446 C 291.277 188.971,290.736 190.146,290.472 191.059 C 290.208 191.971,289.724 192.820,289.396 192.946 C 289.068 193.072,288.800 193.418,288.800 193.715 C 288.800 194.013,288.305 194.816,287.700 195.501 C 287.095 196.186,286.311 197.073,285.957 197.473 C 284.703 198.891,280.171 202.400,279.594 202.400 C 279.374 202.400,278.803 202.850,278.325 203.400 C 277.847 203.950,277.232 204.400,276.959 204.400 C 276.685 204.400,275.927 204.850,275.273 205.400 C 274.619 205.950,273.918 206.400,273.715 206.400 C 271.006 206.400,269.354 211.887,271.345 214.269 C 271.865 214.891,272.420 215.813,272.578 216.318 C 272.736 216.823,273.227 217.633,273.669 218.118 C 275.208 219.807,276.800 222.114,276.800 222.655 C 276.800 222.955,277.064 223.200,277.386 223.200 C 277.708 223.200,278.176 223.581,278.425 224.047 C 278.952 225.031,283.071 229.100,284.100 229.652 C 284.485 229.859,284.800 230.292,284.800 230.614 C 284.800 230.936,285.045 231.200,285.345 231.200 C 285.858 231.200,287.733 232.483,290.000 234.385 C 291.012 235.234,292.717 236.236,295.117 237.391 C 295.842 237.740,296.528 238.269,296.643 238.568 C 296.757 238.866,297.416 239.223,298.106 239.361 C 298.797 239.499,299.730 239.945,300.181 240.351 C 300.631 240.757,301.571 241.280,302.268 241.513 C 302.965 241.746,303.865 242.223,304.268 242.573 C 307.910 245.744,308.800 246.609,308.800 246.979 C 308.800 247.215,309.148 247.625,309.574 247.891 C 310.061 248.195,310.447 249.039,310.617 250.174 C 310.765 251.164,311.137 252.182,311.443 252.436 C 312.179 253.047,312.184 257.158,311.450 258.211 C 311.148 258.645,310.774 259.755,310.619 260.677 C 310.464 261.599,310.070 262.576,309.742 262.848 C 309.415 263.119,308.885 263.849,308.564 264.470 C 307.616 266.303,303.045 270.223,301.363 270.645 C 300.865 270.770,300.364 271.117,300.250 271.415 C 300.135 271.714,299.286 272.162,298.362 272.410 C 297.439 272.659,296.215 273.191,295.642 273.594 C 295.069 273.996,293.900 274.445,293.045 274.591 C 292.190 274.737,291.020 275.186,290.445 275.588 C 289.870 275.990,288.519 276.427,287.442 276.560 C 285.219 276.833,283.063 278.804,282.586 281.000 C 281.799 284.617,276.221 289.992,272.600 290.623 C 271.720 290.776,270.668 291.191,270.263 291.546 C 269.660 292.074,267.965 292.246,260.950 292.492 C 254.495 292.718,252.081 292.944,251.188 293.406 C 250.536 293.743,248.639 294.192,246.972 294.404 C 245.048 294.647,243.580 295.072,242.952 295.566 C 242.408 295.994,241.450 296.457,240.823 296.595 C 240.196 296.733,239.366 297.195,238.979 297.623 C 238.593 298.050,237.966 298.400,237.587 298.400 C 237.208 298.400,236.651 298.699,236.349 299.065 C 236.047 299.431,235.035 300.069,234.100 300.484 C 233.165 300.898,232.400 301.395,232.400 301.588 C 232.400 301.780,231.725 302.156,230.900 302.422 C 230.075 302.688,229.093 303.226,228.718 303.617 C 228.342 304.009,227.442 304.454,226.718 304.608 C 225.993 304.761,225.040 305.205,224.600 305.594 C 224.160 305.983,223.080 306.429,222.200 306.584 C 221.320 306.740,220.306 307.132,219.946 307.455 C 219.586 307.777,218.056 308.233,216.546 308.468 C 215.036 308.702,213.047 309.243,212.127 309.670 C 209.784 310.756,187.777 310.642,186.541 309.538 C 186.102 309.145,184.697 308.759,183.094 308.590 C 181.430 308.415,180.026 308.021,179.448 307.566 C 178.931 307.159,177.736 306.703,176.793 306.552 C 175.850 306.402,174.764 305.964,174.380 305.580 C 173.996 305.196,173.132 304.761,172.460 304.613 C 171.787 304.465,170.821 304.017,170.312 303.617 C 169.803 303.216,168.760 302.589,167.993 302.223 C 165.492 301.028,163.808 300.017,163.400 299.466 C 163.180 299.169,162.341 298.709,161.535 298.444 C 160.730 298.178,159.977 297.717,159.862 297.418 C 159.748 297.120,159.110 296.756,158.446 296.610 C 157.781 296.464,156.814 296.012,156.296 295.604 C 155.735 295.162,154.109 294.691,152.261 294.434 C 150.559 294.197,148.630 293.726,147.973 293.386 C 147.063 292.916,144.851 292.714,138.689 292.542 C 132.088 292.357,130.306 292.183,129.000 291.593 C 128.120 291.195,126.770 290.741,126.000 290.583 C 125.230 290.425,124.060 289.869,123.400 289.346 C 120.773 287.265,119.200 285.787,119.200 285.400 C 119.200 285.176,118.863 284.782,118.450 284.524 C 118.038 284.267,117.581 283.578,117.434 282.994 C 117.288 282.410,116.815 281.553,116.384 281.090 C 115.953 280.628,115.600 279.957,115.600 279.599 C 115.600 278.526,113.516 276.882,111.800 276.601 C 109.822 276.278,108.000 275.604,108.000 275.197 C 108.000 275.029,107.145 274.765,106.100 274.611 C 105.055 274.458,103.840 274.018,103.400 273.634 C 102.960 273.250,101.854 272.724,100.941 272.464 C 100.029 272.205,99.186 271.741,99.068 271.434 C 98.951 271.127,98.327 270.760,97.682 270.618 C 97.037 270.476,96.128 269.964,95.661 269.480 C 95.193 268.996,94.255 268.150,93.574 267.600 C 92.894 267.050,92.127 266.358,91.869 266.062 C 91.611 265.767,91.020 265.137,90.556 264.662 C 90.091 264.188,89.571 263.350,89.401 262.800 C 89.230 262.250,88.755 261.371,88.345 260.846 C 87.242 259.433,87.239 251.161,88.342 250.058 C 88.750 249.650,89.205 248.834,89.353 248.245 C 89.674 246.968,93.401 243.200,94.344 243.200 C 94.709 243.200,95.218 242.863,95.476 242.450 C 95.733 242.038,96.422 241.581,97.006 241.434 C 97.590 241.288,98.447 240.815,98.910 240.384 C 99.372 239.953,100.063 239.600,100.445 239.600 C 100.826 239.600,101.647 239.175,102.269 238.655 C 102.891 238.135,103.850 237.569,104.400 237.397 C 104.950 237.226,105.621 236.772,105.891 236.388 C 106.161 236.005,106.871 235.568,107.470 235.418 C 108.069 235.268,108.958 234.752,109.445 234.272 C 109.932 233.793,110.751 233.097,111.265 232.726 C 113.538 231.088,117.962 227.138,119.740 225.159 C 120.808 223.971,122.113 222.535,122.640 221.967 C 123.168 221.398,123.600 220.730,123.600 220.481 C 123.600 220.232,123.948 219.842,124.373 219.614 C 124.798 219.387,125.273 218.796,125.428 218.300 C 125.583 217.805,126.135 216.891,126.655 216.269 C 127.175 215.647,127.600 214.849,127.600 214.495 C 127.600 214.141,127.944 213.480,128.365 213.026 C 129.182 212.145,129.322 211.646,129.247 209.890 C 129.214 209.098,128.914 208.671,128.200 208.400 C 127.650 208.191,127.200 207.834,127.200 207.607 C 127.200 207.379,126.480 206.905,125.600 206.553 C 124.720 206.201,124.000 205.743,124.000 205.536 C 124.000 205.329,123.370 204.896,122.600 204.574 C 121.830 204.252,121.200 203.814,121.200 203.600 C 121.200 203.386,120.539 202.935,119.732 202.597 C 118.925 202.260,118.015 201.628,117.709 201.192 C 117.404 200.756,116.960 200.400,116.723 200.400 C 116.486 200.400,115.879 199.995,115.375 199.500 C 114.871 199.005,114.261 198.420,114.020 198.200 C 113.778 197.980,113.036 197.170,112.370 196.400 C 111.704 195.630,110.828 194.640,110.424 194.200 C 110.019 193.760,109.556 192.950,109.394 192.400 C 109.233 191.850,108.782 191.096,108.392 190.724 C 107.951 190.302,107.576 189.118,107.398 187.585 C 107.241 186.231,106.893 184.700,106.625 184.183 C 106.297 183.551,106.239 182.616,106.448 181.322 C 107.299 176.041,107.936 173.608,108.732 172.596 C 109.209 171.989,109.600 171.298,109.600 171.060 C 109.600 169.370,116.602 163.885,119.400 163.385 C 120.280 163.227,121.335 162.806,121.744 162.449 C 122.352 161.918,123.464 161.802,127.844 161.810 L 133.200 161.820 133.220 157.810 C 133.264 149.288,133.862 140.871,134.492 139.909 C 134.827 139.398,135.224 137.814,135.374 136.390 C 135.662 133.668,136.282 131.600,136.811 131.600 C 136.984 131.600,137.248 130.703,137.399 129.608 C 137.550 128.512,137.999 127.200,138.398 126.693 C 138.797 126.187,139.315 125.057,139.550 124.184 C 139.785 123.311,140.343 122.284,140.789 121.902 C 141.235 121.520,141.600 120.840,141.600 120.391 C 141.600 119.942,141.877 119.469,142.215 119.339 C 142.553 119.209,143.097 118.464,143.423 117.684 C 143.749 116.903,144.372 116.015,144.808 115.709 C 145.244 115.404,145.600 114.889,145.600 114.565 C 145.600 114.240,145.877 113.869,146.215 113.739 C 146.553 113.609,147.098 112.985,147.425 112.352 C 147.753 111.718,148.286 111.200,148.610 111.200 C 148.935 111.200,149.200 111.003,149.200 110.763 C 149.200 110.328,154.127 105.200,154.545 105.200 C 154.665 105.200,155.199 104.795,155.732 104.300 C 158.204 102.002,159.259 101.200,159.807 101.200 C 160.133 101.200,160.400 101.048,160.400 100.863 C 160.400 100.678,161.075 100.183,161.900 99.763 C 162.725 99.343,163.536 98.789,163.703 98.530 C 163.870 98.272,164.680 97.844,165.503 97.581 C 166.326 97.317,167.360 96.783,167.800 96.394 C 168.240 96.005,169.203 95.559,169.941 95.402 C 170.678 95.246,171.595 94.805,171.978 94.422 C 172.361 94.039,173.544 93.607,174.608 93.461 C 175.671 93.315,176.855 92.912,177.239 92.565 C 177.632 92.209,179.301 91.754,181.068 91.522 C 182.791 91.295,184.426 90.927,184.702 90.704 C 186.294 89.418,212.418 89.189,213.859 90.448 " stroke="none" fill="#fbfb04" fill-rule="evenodd"></path><path id="path3" d="M186.502 89.977 C 185.789 90.154,184.979 90.481,184.702 90.704 C 184.426 90.927,182.791 91.295,181.068 91.522 C 179.301 91.754,177.632 92.209,177.239 92.565 C 176.855 92.912,175.671 93.315,174.608 93.461 C 173.544 93.607,172.361 94.039,171.978 94.422 C 171.595 94.805,170.678 95.246,169.941 95.402 C 169.203 95.559,168.240 96.005,167.800 96.394 C 167.360 96.783,166.326 97.317,165.503 97.581 C 164.680 97.844,163.870 98.272,163.703 98.530 C 163.536 98.789,162.725 99.343,161.900 99.763 C 161.075 100.183,160.400 100.678,160.400 100.863 C 160.400 101.048,160.133 101.200,159.807 101.200 C 159.259 101.200,158.204 102.002,155.732 104.300 C 155.199 104.795,154.665 105.200,154.545 105.200 C 154.127 105.200,149.200 110.328,149.200 110.763 C 149.200 111.003,148.935 111.200,148.610 111.200 C 148.286 111.200,147.753 111.718,147.425 112.352 C 147.098 112.985,146.553 113.609,146.215 113.739 C 145.877 113.869,145.600 114.240,145.600 114.565 C 145.600 114.889,145.244 115.404,144.808 115.709 C 144.372 116.015,143.749 116.903,143.423 117.684 C 143.097 118.464,142.553 119.209,142.215 119.339 C 141.877 119.469,141.600 119.942,141.600 120.391 C 141.600 120.840,141.235 121.520,140.789 121.902 C 140.343 122.284,139.785 123.311,139.550 124.184 C 139.315 125.057,138.797 126.187,138.398 126.693 C 137.999 127.200,137.550 128.512,137.399 129.608 C 137.248 130.703,136.984 131.600,136.811 131.600 C 136.282 131.600,135.662 133.668,135.374 136.390 C 135.224 137.814,134.827 139.398,134.492 139.909 C 133.862 140.871,133.264 149.288,133.220 157.810 L 133.200 161.820 127.844 161.810 C 123.464 161.802,122.352 161.918,121.744 162.449 C 121.335 162.806,120.280 163.227,119.400 163.385 C 116.839 163.843,114.522 165.495,110.381 169.814 C 109.951 170.262,109.600 170.823,109.600 171.060 C 109.600 171.298,109.209 171.989,108.732 172.596 C 107.936 173.608,107.299 176.041,106.448 181.322 C 106.239 182.616,106.297 183.551,106.625 184.183 C 106.893 184.700,107.241 186.231,107.398 187.585 C 107.576 189.118,107.951 190.302,108.392 190.724 C 108.782 191.096,109.233 191.850,109.394 192.400 C 109.556 192.950,110.019 193.760,110.424 194.200 C 110.828 194.640,111.704 195.630,112.370 196.400 C 113.036 197.170,113.778 197.980,114.020 198.200 C 114.261 198.420,114.871 199.005,115.375 199.500 C 115.879 199.995,116.486 200.400,116.723 200.400 C 116.960 200.400,117.404 200.756,117.709 201.192 C 118.015 201.628,118.925 202.260,119.732 202.597 C 120.539 202.935,121.200 203.386,121.200 203.600 C 121.200 203.814,121.830 204.252,122.600 204.574 C 123.370 204.896,124.000 205.329,124.000 205.536 C 124.000 205.743,124.720 206.201,125.600 206.553 C 126.480 206.905,127.200 207.379,127.200 207.607 C 127.200 207.834,127.650 208.191,128.200 208.400 C 128.914 208.671,129.214 209.098,129.247 209.890 C 129.322 211.646,129.182 212.145,128.365 213.026 C 127.944 213.480,127.600 214.141,127.600 214.495 C 127.600 214.849,127.175 215.647,126.655 216.269 C 126.135 216.891,125.583 217.805,125.428 218.300 C 125.273 218.796,124.798 219.387,124.373 219.614 C 123.948 219.842,123.600 220.232,123.600 220.481 C 123.600 220.730,123.168 221.398,122.640 221.967 C 122.113 222.535,120.808 223.971,119.740 225.159 C 117.962 227.138,113.538 231.088,111.265 232.726 C 110.751 233.097,109.932 233.793,109.445 234.272 C 108.958 234.752,108.069 235.268,107.470 235.418 C 106.871 235.568,106.161 236.005,105.891 236.388 C 105.621 236.772,104.950 237.226,104.400 237.397 C 103.850 237.569,102.891 238.135,102.269 238.655 C 101.647 239.175,100.826 239.600,100.445 239.600 C 100.063 239.600,99.372 239.953,98.910 240.384 C 98.447 240.815,97.590 241.288,97.006 241.434 C 96.422 241.581,95.733 242.038,95.476 242.450 C 95.218 242.863,94.709 243.200,94.344 243.200 C 93.401 243.200,89.674 246.968,89.353 248.245 C 89.205 248.834,88.750 249.650,88.342 250.058 C 87.239 251.161,87.242 259.433,88.345 260.846 C 88.755 261.371,89.230 262.250,89.401 262.800 C 89.571 263.350,90.091 264.188,90.556 264.662 C 91.020 265.137,91.611 265.767,91.869 266.062 C 92.127 266.358,92.894 267.050,93.574 267.600 C 94.255 268.150,95.193 268.996,95.661 269.480 C 96.128 269.964,97.037 270.476,97.682 270.618 C 98.327 270.760,98.951 271.127,99.068 271.434 C 99.186 271.741,100.029 272.205,100.941 272.464 C 101.854 272.724,102.960 273.250,103.400 273.634 C 103.840 274.018,105.055 274.458,106.100 274.611 C 107.145 274.765,108.000 275.029,108.000 275.197 C 108.000 275.604,109.822 276.278,111.800 276.601 C 113.516 276.882,115.600 278.526,115.600 279.599 C 115.600 279.957,115.953 280.628,116.384 281.090 C 116.815 281.553,117.288 282.410,117.434 282.994 C 117.581 283.578,118.038 284.267,118.450 284.524 C 118.863 284.782,119.200 285.176,119.200 285.400 C 119.200 285.787,120.773 287.265,123.400 289.346 C 124.060 289.869,125.230 290.425,126.000 290.583 C 126.770 290.741,128.120 291.195,129.000 291.593 C 130.306 292.183,132.088 292.357,138.689 292.542 C 144.851 292.714,147.063 292.916,147.973 293.386 C 148.630 293.726,150.559 294.197,152.261 294.434 C 154.109 294.691,155.735 295.162,156.296 295.604 C 156.814 296.012,157.781 296.464,158.446 296.610 C 159.110 296.756,159.748 297.120,159.862 297.418 C 159.977 297.717,160.730 298.178,161.535 298.444 C 162.341 298.709,163.180 299.169,163.400 299.466 C 163.808 300.017,165.492 301.028,167.993 302.223 C 168.760 302.589,169.803 303.216,170.312 303.617 C 170.821 304.017,171.787 304.465,172.460 304.613 C 173.132 304.761,173.996 305.196,174.380 305.580 C 174.764 305.964,175.850 306.402,176.793 306.552 C 177.736 306.703,178.931 307.159,179.448 307.566 C 180.026 308.021,181.430 308.415,183.094 308.590 C 184.697 308.759,186.102 309.145,186.541 309.538 C 187.777 310.642,209.784 310.756,212.127 309.670 C 213.047 309.243,215.036 308.702,216.546 308.468 C 218.056 308.233,219.586 307.777,219.946 307.455 C 220.306 307.132,221.320 306.740,222.200 306.584 C 223.080 306.429,224.160 305.983,224.600 305.594 C 225.040 305.205,225.993 304.761,226.718 304.608 C 227.442 304.454,228.342 304.009,228.718 303.617 C 229.093 303.226,230.075 302.688,230.900 302.422 C 231.725 302.156,232.400 301.780,232.400 301.588 C 232.400 301.395,233.165 300.898,234.100 300.484 C 235.035 300.069,236.047 299.431,236.349 299.065 C 236.651 298.699,237.208 298.400,237.587 298.400 C 237.966 298.400,238.593 298.050,238.979 297.623 C 239.366 297.195,240.196 296.733,240.823 296.595 C 241.450 296.457,242.408 295.994,242.952 295.566 C 243.580 295.072,245.048 294.647,246.972 294.404 C 248.639 294.192,250.536 293.743,251.188 293.406 C 252.081 292.944,254.495 292.718,260.950 292.492 C 267.965 292.246,269.660 292.074,270.263 291.546 C 270.668 291.191,271.720 290.776,272.600 290.623 C 276.221 289.992,281.799 284.617,282.586 281.000 C 283.063 278.804,285.219 276.833,287.442 276.560 C 288.519 276.427,289.870 275.990,290.445 275.588 C 291.020 275.186,292.190 274.737,293.045 274.591 C 293.900 274.445,295.069 273.996,295.642 273.594 C 296.215 273.191,297.439 272.659,298.362 272.410 C 299.286 272.162,300.135 271.714,300.250 271.415 C 300.364 271.117,300.865 270.770,301.363 270.645 C 303.045 270.223,307.616 266.303,308.564 264.470 C 308.885 263.849,309.415 263.119,309.742 262.848 C 310.070 262.576,310.464 261.599,310.619 260.677 C 310.774 259.755,311.148 258.645,311.450 258.211 C 312.184 257.158,312.179 253.047,311.443 252.436 C 311.137 252.182,310.765 251.164,310.617 250.174 C 310.447 249.039,310.061 248.195,309.574 247.891 C 309.148 247.625,308.800 247.215,308.800 246.979 C 308.800 246.609,307.910 245.744,304.268 242.573 C 303.865 242.223,302.965 241.746,302.268 241.513 C 301.571 241.280,300.631 240.757,300.181 240.351 C 299.730 239.945,298.797 239.499,298.106 239.361 C 297.416 239.223,296.757 238.866,296.643 238.568 C 296.528 238.269,295.842 237.740,295.117 237.391 C 292.717 236.236,291.012 235.234,290.000 234.385 C 287.733 232.483,285.858 231.200,285.345 231.200 C 285.045 231.200,284.800 230.936,284.800 230.614 C 284.800 230.292,284.485 229.859,284.100 229.652 C 283.071 229.100,278.952 225.031,278.425 224.047 C 278.176 223.581,277.708 223.200,277.386 223.200 C 277.064 223.200,276.800 222.955,276.800 222.655 C 276.800 222.114,275.208 219.807,273.669 218.118 C 273.227 217.633,272.736 216.823,272.578 216.318 C 272.420 215.813,271.865 214.891,271.345 214.269 C 270.442 213.188,270.220 212.199,270.388 210.000 C 270.461 209.048,272.908 206.400,273.715 206.400 C 273.918 206.400,274.619 205.950,275.273 205.400 C 275.927 204.850,276.685 204.400,276.959 204.400 C 277.232 204.400,277.847 203.950,278.325 203.400 C 278.803 202.850,279.374 202.400,279.594 202.400 C 280.171 202.400,284.703 198.891,285.957 197.473 C 286.311 197.073,287.095 196.186,287.700 195.501 C 288.305 194.816,288.800 194.013,288.800 193.715 C 288.800 193.418,289.068 193.072,289.396 192.946 C 289.724 192.820,290.208 191.971,290.472 191.059 C 290.736 190.146,291.277 188.971,291.676 188.446 C 292.756 187.023,292.744 177.169,291.659 175.390 C 291.254 174.725,290.700 173.510,290.430 172.690 C 290.159 171.871,289.790 171.200,289.608 171.200 C 289.427 171.200,288.946 170.589,288.539 169.841 C 287.745 168.382,284.266 165.200,283.465 165.200 C 283.197 165.200,282.686 164.859,282.329 164.442 C 281.972 164.025,280.897 163.555,279.940 163.398 C 278.983 163.241,277.866 162.818,277.458 162.456 C 276.857 161.925,275.749 161.794,271.658 161.770 L 266.600 161.740 266.325 154.594 C 266.143 149.856,265.849 146.901,265.451 145.824 C 265.122 144.931,264.737 142.580,264.596 140.600 C 264.334 136.914,263.779 134.400,263.228 134.400 C 263.058 134.400,262.721 133.209,262.480 131.754 C 262.239 130.299,261.764 128.803,261.425 128.428 C 261.087 128.054,260.693 127.129,260.551 126.374 C 260.409 125.618,259.979 124.640,259.596 124.200 C 259.212 123.760,258.695 122.764,258.447 121.987 C 258.199 121.210,257.636 120.266,257.198 119.891 C 256.759 119.515,256.400 118.938,256.400 118.607 C 256.400 118.277,256.040 117.782,255.600 117.507 C 255.160 117.232,254.800 116.798,254.800 116.542 C 254.800 115.991,252.725 113.357,250.203 110.706 C 249.211 109.664,248.400 108.629,248.400 108.406 C 248.400 108.182,248.232 108.000,248.027 108.000 C 247.822 108.000,246.640 107.019,245.402 105.819 C 244.164 104.620,242.801 103.527,242.375 103.392 C 241.949 103.257,241.600 103.011,241.600 102.847 C 241.600 102.682,240.880 102.143,240.000 101.648 C 239.120 101.153,238.400 100.602,238.400 100.423 C 238.400 100.244,237.815 99.857,237.100 99.563 C 236.385 99.270,235.451 98.708,235.025 98.315 C 234.598 97.922,233.949 97.600,233.583 97.600 C 233.217 97.600,232.459 97.176,231.900 96.658 C 231.341 96.140,230.145 95.597,229.242 95.453 C 228.339 95.309,227.600 95.035,227.600 94.844 C 227.600 94.429,225.937 93.753,224.000 93.380 C 223.230 93.232,222.296 92.843,221.924 92.515 C 221.552 92.188,219.752 91.735,217.924 91.508 C 215.947 91.264,214.300 90.834,213.859 90.448 C 213.036 89.729,189.171 89.318,186.502 89.977 M212.543 91.242 C 217.359 92.179,223.402 93.907,226.600 95.261 C 229.660 96.557,233.686 98.504,234.800 99.226 C 235.350 99.583,236.609 100.398,237.598 101.037 C 255.987 112.926,265.176 131.717,265.197 157.474 C 265.201 162.428,265.914 163.798,268.151 163.157 C 274.692 161.281,284.372 165.094,288.466 171.159 C 294.618 180.275,291.440 193.762,281.702 199.871 C 281.096 200.251,280.330 200.805,280.000 201.103 C 279.670 201.400,278.410 202.254,277.200 203.000 C 269.192 207.938,268.230 209.187,269.686 212.761 C 271.259 216.619,275.888 223.211,279.383 226.569 C 281.752 228.844,285.504 232.209,286.445 232.904 C 286.970 233.290,287.940 234.030,288.600 234.547 C 289.260 235.064,290.340 235.789,291.000 236.158 C 291.660 236.527,293.010 237.352,294.000 237.990 C 294.990 238.629,297.465 239.999,299.499 241.034 C 301.534 242.069,303.401 243.160,303.648 243.458 C 303.896 243.756,304.323 244.000,304.598 244.000 C 306.278 244.000,309.805 249.412,310.417 252.930 C 312.169 262.991,303.929 270.926,286.634 275.831 C 284.530 276.428,282.618 278.207,282.152 280.000 C 280.165 287.650,273.011 291.191,258.000 291.957 C 251.923 292.267,249.678 292.536,247.837 293.177 C 246.538 293.630,245.098 294.003,244.637 294.006 C 244.177 294.009,243.350 294.263,242.800 294.571 C 242.250 294.878,240.900 295.602,239.800 296.179 C 236.938 297.680,235.253 298.658,233.200 300.008 C 232.210 300.659,230.680 301.551,229.800 301.991 C 228.920 302.430,227.930 302.957,227.600 303.161 C 213.459 311.895,188.193 311.983,172.000 303.353 C 171.450 303.060,170.280 302.454,169.400 302.006 C 168.520 301.558,166.990 300.660,166.000 300.011 C 165.010 299.361,163.570 298.488,162.800 298.070 C 157.022 294.935,155.089 294.000,154.386 294.000 C 153.943 294.000,152.550 293.631,151.290 293.180 C 149.490 292.536,147.289 292.272,141.000 291.949 C 126.076 291.180,121.357 288.922,117.141 280.528 C 115.375 277.013,114.668 276.363,112.000 275.802 C 111.230 275.640,110.420 275.367,110.200 275.195 C 109.980 275.022,108.837 274.597,107.659 274.250 C 105.753 273.688,102.046 272.126,100.400 271.190 C 91.546 266.160,88.147 261.473,88.513 254.800 C 88.865 248.373,91.669 244.989,100.098 240.818 C 102.022 239.866,103.799 238.842,104.047 238.543 C 104.295 238.244,104.678 238.000,104.897 238.000 C 105.515 238.000,108.622 235.993,111.131 233.973 C 112.379 232.968,113.703 231.977,114.073 231.772 C 115.153 231.172,121.688 224.622,123.000 222.823 C 123.660 221.918,124.451 220.900,124.758 220.560 C 125.642 219.580,126.911 217.612,128.515 214.735 C 130.913 210.432,130.434 208.147,126.721 206.174 C 126.127 205.859,124.807 205.016,123.787 204.300 C 122.767 203.585,121.250 202.550,120.416 202.000 C 119.582 201.450,118.382 200.651,117.750 200.224 C 114.906 198.304,110.839 193.606,109.343 190.514 L 107.836 187.400 107.818 182.000 L 107.800 176.600 109.300 173.532 C 110.886 170.286,113.487 167.325,115.948 165.964 C 116.747 165.522,117.850 164.910,118.400 164.603 C 121.095 163.101,128.172 162.353,131.348 163.234 C 133.726 163.895,133.769 163.752,134.063 154.280 C 134.258 147.974,134.539 144.826,135.157 142.000 C 135.614 139.910,135.998 137.750,136.011 137.200 C 136.024 136.650,136.309 135.480,136.644 134.600 C 136.979 133.720,137.528 132.010,137.864 130.800 C 138.200 129.590,138.715 128.150,139.007 127.600 C 139.299 127.050,140.199 125.250,141.007 123.600 C 142.375 120.805,142.881 119.964,145.288 116.479 C 148.406 111.964,156.797 103.725,160.200 101.837 C 160.860 101.471,162.210 100.650,163.200 100.013 C 164.842 98.957,167.471 97.609,173.040 94.968 C 174.162 94.435,175.332 94.002,175.640 94.004 C 175.948 94.006,177.550 93.569,179.200 93.033 C 188.541 89.998,202.342 89.256,212.543 91.242 M195.133 103.069 C 194.766 103.167,192.696 103.500,190.533 103.809 L 186.600 104.373 190.600 104.086 C 195.729 103.719,203.552 103.720,208.400 104.089 L 212.200 104.378 207.400 103.609 C 203.016 102.907,196.783 102.633,195.133 103.069 M183.453 105.003 C 182.822 105.332,181.742 105.779,181.053 105.996 C 179.877 106.367,179.898 106.377,181.400 106.166 C 182.280 106.042,183.373 105.701,183.829 105.407 C 184.285 105.114,185.095 104.792,185.629 104.692 L 186.600 104.509 185.600 104.457 C 185.050 104.428,184.084 104.674,183.453 105.003 M213.783 104.660 C 214.214 104.787,214.934 105.127,215.383 105.416 C 215.832 105.705,216.920 106.053,217.800 106.190 C 219.299 106.423,219.261 106.385,217.200 105.594 C 215.990 105.130,214.550 104.677,214.000 104.589 C 213.393 104.492,213.308 104.520,213.783 104.660 M175.800 107.773 C 174.700 108.228,173.355 108.915,172.811 109.300 C 172.267 109.685,171.617 110.000,171.366 110.000 C 171.115 110.000,170.231 110.540,169.400 111.200 C 168.569 111.860,167.704 112.400,167.476 112.400 C 167.082 112.400,163.993 114.958,161.387 117.443 C 159.546 119.198,154.400 125.441,154.400 125.918 C 154.400 126.149,153.975 126.847,153.455 127.469 C 152.935 128.091,152.374 129.050,152.209 129.600 C 152.044 130.150,151.554 131.185,151.121 131.901 C 150.688 132.616,150.425 133.426,150.535 133.701 C 150.663 134.018,150.748 133.962,150.768 133.549 C 150.786 133.191,151.048 132.692,151.350 132.441 C 151.653 132.190,152.126 131.178,152.402 130.192 C 152.678 129.207,153.071 128.400,153.274 128.400 C 153.478 128.400,153.995 127.609,154.422 126.643 C 154.850 125.676,155.470 124.782,155.800 124.655 C 156.130 124.529,156.400 124.168,156.400 123.854 C 156.400 123.162,164.820 114.400,165.485 114.400 C 165.743 114.400,166.190 114.085,166.477 113.700 C 166.765 113.315,167.675 112.688,168.500 112.306 C 169.325 111.925,170.000 111.454,170.000 111.261 C 170.000 111.067,170.810 110.599,171.800 110.221 C 172.790 109.843,173.600 109.390,173.600 109.214 C 173.600 109.039,174.365 108.696,175.300 108.452 C 177.053 107.996,178.320 107.356,177.988 107.095 C 177.885 107.013,176.900 107.319,175.800 107.773 M221.200 107.142 C 221.200 107.497,222.430 108.069,224.398 108.631 C 224.948 108.788,225.578 109.132,225.798 109.396 C 226.019 109.660,226.830 110.116,227.600 110.408 C 228.370 110.700,229.322 111.268,229.716 111.669 C 230.109 112.071,230.579 112.400,230.761 112.400 C 231.715 112.400,237.838 117.736,240.299 120.712 C 242.858 123.806,243.523 124.677,243.955 125.500 C 244.215 125.995,244.609 126.400,244.830 126.400 C 245.082 126.400,245.070 126.214,244.798 125.900 C 244.560 125.625,243.448 124.166,242.328 122.659 C 238.694 117.766,232.842 112.678,228.064 110.258 C 227.259 109.851,226.330 109.280,226.000 108.990 C 225.670 108.700,224.860 108.337,224.200 108.184 C 223.540 108.030,222.595 107.652,222.100 107.343 C 221.605 107.034,221.200 106.944,221.200 107.142 M245.200 126.946 C 245.200 127.663,246.352 129.862,247.009 130.400 C 247.532 130.829,247.415 130.429,246.599 129.000 C 245.279 126.687,245.200 126.571,245.200 126.946 M247.784 132.600 C 247.937 133.260,248.300 134.070,248.590 134.400 C 248.880 134.730,249.205 135.360,249.312 135.800 C 249.461 136.410,249.518 136.439,249.554 135.921 C 249.579 135.548,249.129 134.378,248.553 133.321 C 247.733 131.817,247.566 131.661,247.784 132.600 M149.986 135.100 C 149.979 135.485,149.625 136.520,149.200 137.400 C 148.775 138.280,148.442 139.360,148.460 139.800 C 148.492 140.580,148.498 140.580,148.692 139.817 C 148.801 139.386,149.127 138.666,149.416 138.217 C 149.997 137.312,150.630 134.400,150.245 134.400 C 150.110 134.400,149.994 134.715,149.986 135.100 M249.873 139.000 C 249.969 140.100,250.307 141.523,250.624 142.161 C 250.941 142.800,251.227 143.880,251.260 144.561 C 251.319 145.789,251.321 145.790,251.488 144.686 C 251.580 144.073,251.293 142.453,250.850 141.086 C 250.406 139.719,249.966 138.240,249.871 137.800 C 249.776 137.360,249.777 137.900,249.873 139.000 M148.046 142.800 C 148.005 143.790,147.712 146.040,147.394 147.800 C 146.860 150.755,146.576 155.957,146.970 155.563 C 147.285 155.249,148.461 143.269,148.289 142.127 C 148.170 141.334,148.098 141.533,148.046 142.800 M251.695 163.051 C 251.607 178.310,251.651 179.542,252.300 180.051 C 252.919 180.536,252.943 180.526,252.505 179.964 C 252.133 179.488,251.982 175.227,251.900 162.964 L 251.791 146.600 251.695 163.051 M146.550 160.200 C 146.551 162.620,146.616 163.558,146.696 162.285 C 146.776 161.012,146.775 159.032,146.694 157.885 C 146.614 156.738,146.549 157.780,146.550 160.200 M147.085 170.600 C 147.546 179.608,147.522 179.708,144.744 180.435 L 143.400 180.786 144.950 180.610 C 148.148 180.247,148.735 176.880,147.182 167.800 C 146.956 166.476,146.923 167.421,147.085 170.600 M123.600 176.280 C 122.676 176.614,120.397 179.268,120.428 179.973 C 120.453 180.535,120.484 180.534,120.728 179.964 C 121.868 177.296,123.132 176.611,127.358 176.367 L 131.400 176.134 127.800 176.099 C 125.820 176.079,123.930 176.161,123.600 176.280 M271.670 176.371 C 276.170 176.637,277.173 177.248,278.008 180.228 C 279.221 184.559,276.531 188.144,268.426 193.000 C 267.692 193.440,266.620 194.212,266.045 194.715 C 264.794 195.809,267.316 194.325,269.263 192.821 C 269.848 192.370,270.478 192.000,270.663 192.000 C 270.848 191.999,271.523 191.549,272.162 191.000 C 272.801 190.450,273.432 190.000,273.562 190.000 C 275.639 190.000,279.531 183.239,278.789 180.920 C 277.461 176.767,276.226 175.970,271.281 176.071 L 267.800 176.143 271.670 176.371 M132.200 176.762 C 132.640 176.917,133.669 177.349,134.487 177.722 C 135.305 178.095,136.295 178.385,136.687 178.366 C 137.163 178.343,137.066 178.230,136.397 178.026 C 135.846 177.859,134.820 177.424,134.117 177.061 C 133.415 176.697,132.516 176.418,132.120 176.440 C 131.489 176.475,131.498 176.514,132.200 176.762 M265.000 177.049 C 264.340 177.403,263.350 177.836,262.800 178.012 C 262.119 178.229,262.027 178.342,262.513 178.366 C 262.905 178.385,263.895 178.095,264.713 177.722 C 265.531 177.349,266.560 176.917,267.000 176.762 L 267.800 176.480 267.000 176.442 C 266.560 176.422,265.660 176.695,265.000 177.049 M138.400 178.989 C 140.279 180.073,141.347 180.436,142.174 180.273 C 142.863 180.136,142.834 180.099,142.000 180.052 C 141.450 180.020,140.460 179.637,139.800 179.200 C 139.140 178.763,138.330 178.407,138.000 178.409 C 137.649 178.410,137.815 178.651,138.400 178.989 M259.400 179.200 C 258.740 179.637,257.750 180.020,257.200 180.052 C 256.366 180.099,256.337 180.136,257.026 180.273 C 257.853 180.436,258.921 180.073,260.800 178.989 C 261.385 178.651,261.551 178.410,261.200 178.409 C 260.870 178.407,260.060 178.763,259.400 179.200 M253.905 180.683 C 254.402 180.779,255.122 180.775,255.505 180.675 C 255.887 180.575,255.480 180.496,254.600 180.501 C 253.720 180.505,253.407 180.587,253.905 180.683 M120.093 182.000 C 120.093 182.770,120.175 183.085,120.276 182.700 C 120.376 182.315,120.376 181.685,120.276 181.300 C 120.175 180.915,120.093 181.230,120.093 182.000 M120.425 184.019 C 120.380 185.134,123.741 188.861,126.461 190.711 C 130.435 193.414,131.050 193.757,130.200 192.795 C 129.760 192.297,128.815 191.642,128.100 191.339 C 127.385 191.037,126.800 190.624,126.800 190.422 C 126.800 190.219,126.474 189.950,126.075 189.824 C 125.166 189.535,122.400 187.030,122.400 186.495 C 122.400 186.277,122.110 185.857,121.755 185.563 C 121.401 185.269,120.962 184.662,120.781 184.214 C 120.556 183.660,120.443 183.598,120.425 184.019 M131.996 194.300 C 132.532 194.685,133.549 195.360,134.256 195.800 C 139.280 198.927,143.667 202.398,144.114 203.600 C 144.308 204.121,144.341 204.119,144.368 203.581 C 144.409 202.792,142.029 200.517,139.200 198.641 C 137.990 197.839,136.640 196.909,136.200 196.575 C 135.760 196.242,134.590 195.439,133.600 194.792 C 131.673 193.532,130.371 193.133,131.996 194.300 M263.307 196.400 C 262.930 196.840,262.398 197.200,262.125 197.200 C 261.852 197.200,261.013 197.740,260.261 198.400 C 259.509 199.060,258.759 199.600,258.594 199.600 C 258.156 199.600,255.201 202.534,255.200 202.969 C 255.200 203.171,254.917 203.650,254.571 204.032 C 253.526 205.187,254.012 211.721,255.065 210.669 C 255.175 210.559,255.070 210.105,254.832 209.661 C 254.139 208.365,254.322 205.343,255.192 203.719 C 255.892 202.413,260.835 198.000,261.598 198.000 C 261.759 198.000,262.569 197.460,263.400 196.800 C 264.231 196.140,264.703 195.600,264.451 195.600 C 264.199 195.600,263.684 195.960,263.307 196.400 M144.524 206.600 C 144.526 207.920,144.601 208.412,144.690 207.693 C 144.779 206.974,144.777 205.894,144.686 205.293 C 144.595 204.692,144.522 205.280,144.524 206.600 M144.000 210.839 C 144.000 211.374,143.631 212.501,143.179 213.343 C 142.728 214.186,142.443 215.083,142.548 215.337 C 142.652 215.592,142.751 215.507,142.768 215.149 C 142.786 214.791,143.056 214.286,143.369 214.026 C 143.973 213.524,144.643 210.510,144.240 210.106 C 144.108 209.975,144.000 210.304,144.000 210.839 M255.634 213.646 C 255.615 214.221,255.933 215.121,256.340 215.646 C 256.747 216.171,257.183 216.870,257.309 217.200 C 257.509 217.726,257.541 217.725,257.568 217.189 C 257.586 216.853,257.311 216.166,256.958 215.661 C 256.605 215.157,256.170 214.262,255.992 213.672 L 255.669 212.600 255.634 213.646 M142.032 216.446 C 142.014 216.801,141.665 217.521,141.255 218.046 C 140.845 218.571,140.377 219.424,140.215 219.941 C 140.053 220.459,139.533 221.483,139.060 222.216 C 138.587 222.950,137.750 224.316,137.200 225.251 C 136.033 227.237,129.123 235.628,127.152 237.452 C 125.179 239.278,117.097 245.685,115.752 246.489 C 114.365 247.318,113.395 247.937,111.815 249.000 C 111.162 249.440,110.171 250.023,109.614 250.296 L 108.600 250.792 109.600 250.554 C 110.150 250.424,111.030 250.020,111.556 249.658 C 112.082 249.296,112.802 248.822,113.156 248.605 C 116.342 246.649,117.941 245.553,118.379 245.025 C 118.665 244.681,119.095 244.400,119.335 244.400 C 119.575 244.400,120.138 244.045,120.586 243.612 C 121.034 243.179,122.750 241.700,124.400 240.326 C 127.991 237.336,131.818 233.419,132.631 231.900 C 132.955 231.295,133.378 230.800,133.571 230.800 C 133.763 230.800,134.289 230.215,134.738 229.500 C 135.188 228.785,136.099 227.480,136.762 226.600 C 137.426 225.720,138.227 224.437,138.543 223.749 C 138.860 223.061,139.304 222.383,139.530 222.243 C 139.756 222.103,140.163 221.316,140.434 220.494 C 140.705 219.672,141.279 218.523,141.710 217.939 C 142.140 217.356,142.396 216.636,142.278 216.339 C 142.121 215.946,142.055 215.975,142.032 216.446 M257.632 218.326 C 257.585 219.106,258.362 220.400,258.876 220.400 C 259.145 220.400,259.080 220.120,258.714 219.700 C 258.379 219.315,258.005 218.730,257.884 218.400 C 257.732 217.986,257.653 217.963,257.632 218.326 M259.446 221.600 C 259.665 222.525,259.952 223.028,261.600 225.374 C 261.930 225.844,262.560 226.831,263.000 227.568 C 263.797 228.903,264.179 229.373,267.600 233.212 C 271.074 237.111,272.435 238.498,272.613 238.321 C 272.711 238.222,271.759 237.074,270.496 235.770 C 267.391 232.561,264.230 228.817,263.600 227.600 C 263.316 227.050,262.839 226.456,262.542 226.280 C 262.244 226.104,262.000 225.772,262.000 225.542 C 262.000 225.312,261.595 224.562,261.100 223.875 C 260.605 223.189,259.977 222.171,259.704 221.614 L 259.208 220.600 259.446 221.600 M273.411 238.819 C 273.528 239.160,274.293 240.004,275.112 240.695 C 278.815 243.823,280.108 244.800,280.542 244.800 C 280.798 244.800,281.232 245.160,281.507 245.600 C 281.782 246.040,282.177 246.400,282.384 246.400 C 282.592 246.400,282.345 245.950,281.835 245.400 C 281.325 244.850,280.744 244.400,280.543 244.400 C 280.097 244.400,274.502 239.874,273.743 238.900 C 273.335 238.375,273.251 238.355,273.411 238.819 M283.757 247.108 C 284.174 247.593,285.119 248.208,285.857 248.475 C 286.596 248.742,287.200 249.111,287.200 249.295 C 287.200 249.478,287.965 249.991,288.900 250.435 C 289.835 250.879,291.438 251.727,292.462 252.321 C 293.486 252.914,294.926 253.740,295.662 254.156 C 296.398 254.572,297.132 255.112,297.294 255.356 C 297.506 255.677,297.589 255.672,297.594 255.340 C 297.602 254.739,294.132 252.564,289.717 250.402 C 288.791 249.948,287.923 249.400,287.789 249.183 C 287.655 248.965,286.973 248.526,286.273 248.205 C 285.573 247.885,284.550 247.309,284.000 246.925 L 283.000 246.227 283.757 247.108 M107.641 251.351 C 107.380 251.665,106.690 252.041,106.107 252.188 C 102.576 253.074,100.790 256.722,103.300 257.919 C 103.905 258.208,104.400 258.600,104.400 258.791 C 104.400 258.982,105.075 259.352,105.900 259.614 C 106.725 259.875,107.850 260.371,108.400 260.714 C 109.319 261.289,109.357 261.287,108.868 260.690 C 108.575 260.333,107.675 259.830,106.868 259.571 C 106.061 259.313,105.040 258.790,104.600 258.410 C 104.160 258.030,103.485 257.608,103.100 257.472 C 101.017 256.737,103.181 253.527,106.494 252.434 C 107.931 251.961,108.682 251.348,108.297 250.964 C 108.196 250.863,107.901 251.037,107.641 251.351 M296.352 256.691 C 295.998 257.081,295.152 257.842,294.471 258.383 C 293.789 258.923,293.303 259.436,293.389 259.523 C 293.476 259.609,294.324 259.079,295.273 258.344 C 296.223 257.609,297.064 256.973,297.142 256.929 C 297.220 256.886,297.218 256.655,297.139 256.416 C 297.053 256.159,296.731 256.271,296.352 256.691 M291.200 259.891 C 290.502 260.157,288.580 261.600,288.925 261.600 C 289.053 261.600,290.004 261.150,291.038 260.600 C 292.709 259.712,292.807 259.280,291.200 259.891 M112.000 262.038 C 112.770 262.277,113.629 262.662,113.910 262.893 C 114.190 263.125,114.509 263.224,114.619 263.114 C 115.026 262.707,113.625 261.956,112.136 261.782 L 110.600 261.603 112.000 262.038 M285.200 262.295 C 284.430 262.659,283.440 263.084,283.000 263.239 C 282.296 263.487,282.286 263.525,282.922 263.560 C 283.319 263.582,284.399 263.259,285.322 262.843 C 286.245 262.426,287.360 261.997,287.800 261.889 C 288.454 261.729,288.418 261.687,287.600 261.662 C 287.050 261.645,285.970 261.930,285.200 262.295 M118.513 264.037 C 119.345 264.233,120.577 264.678,121.250 265.026 C 121.923 265.374,122.557 265.576,122.658 265.475 C 123.020 265.113,119.324 263.601,118.174 263.640 C 117.090 263.677,117.115 263.708,118.513 264.037 M277.800 264.591 C 276.700 265.132,276.034 265.581,276.320 265.587 C 276.606 265.594,277.365 265.328,278.007 264.996 C 278.649 264.664,279.855 264.233,280.687 264.037 C 282.114 263.700,282.132 263.678,281.000 263.644 C 280.340 263.624,278.900 264.050,277.800 264.591 M124.200 266.131 C 125.766 266.877,127.540 268.785,128.019 270.242 L 128.401 271.400 128.210 270.096 C 127.977 268.511,125.712 266.124,124.128 265.795 L 123.000 265.560 124.200 266.131 M273.100 266.915 C 272.275 267.622,271.600 268.370,271.600 268.578 C 271.600 268.787,272.185 268.405,272.900 267.731 C 273.615 267.057,274.560 266.307,275.000 266.065 C 275.547 265.763,275.611 265.625,275.200 265.627 C 274.870 265.629,273.925 266.208,273.100 266.915 M270.485 271.066 C 270.276 271.470,269.985 272.520,269.839 273.400 C 269.107 277.800,269.740 277.429,261.930 278.032 C 256.086 278.482,252.747 279.100,255.802 279.166 C 257.961 279.212,267.227 278.112,268.434 277.666 C 269.236 277.370,269.546 276.739,270.259 273.955 C 271.122 270.587,271.191 269.700,270.485 271.066 M128.571 273.472 C 128.846 276.640,130.241 277.824,134.308 278.342 C 139.209 278.966,145.255 279.286,143.969 278.853 C 143.402 278.662,141.332 278.387,139.369 278.241 C 129.959 277.544,129.722 277.431,128.749 273.200 C 128.434 271.833,128.430 271.839,128.571 273.472 M145.900 279.482 C 146.395 279.578,147.205 279.578,147.700 279.482 C 148.195 279.387,147.790 279.309,146.800 279.309 C 145.810 279.309,145.405 279.387,145.900 279.482 M251.500 279.482 C 251.995 279.578,252.805 279.578,253.300 279.482 C 253.795 279.387,253.390 279.309,252.400 279.309 C 251.410 279.309,251.005 279.387,251.500 279.482 M151.600 279.975 C 152.810 280.160,154.493 280.612,155.339 280.978 C 156.186 281.344,157.176 281.565,157.539 281.468 C 158.109 281.317,158.102 281.286,157.486 281.246 C 157.093 281.221,156.353 280.926,155.841 280.590 C 155.329 280.254,153.671 279.903,152.155 279.809 C 149.441 279.641,149.433 279.643,151.600 279.975 M244.674 280.007 C 244.055 280.192,243.335 280.518,243.074 280.729 C 242.813 280.941,242.240 281.202,241.800 281.311 L 241.000 281.507 241.800 281.551 C 242.240 281.575,243.140 281.312,243.800 280.965 C 244.460 280.619,246.080 280.193,247.400 280.019 L 249.800 279.701 247.800 279.685 C 246.700 279.676,245.293 279.821,244.674 280.007 M159.272 281.992 C 159.862 282.170,160.757 282.605,161.261 282.958 C 161.766 283.311,162.453 283.586,162.789 283.568 C 163.325 283.541,163.326 283.509,162.800 283.309 C 162.470 283.183,161.771 282.747,161.246 282.340 C 160.721 281.933,159.821 281.615,159.246 281.634 L 158.200 281.669 159.272 281.992 M238.100 282.088 C 237.605 282.327,237.200 282.675,237.200 282.861 C 237.200 283.048,236.885 283.214,236.500 283.232 C 236.092 283.250,236.006 283.346,236.294 283.463 C 236.566 283.573,237.288 283.307,237.899 282.872 C 238.510 282.436,239.458 281.997,240.005 281.895 L 241.000 281.709 240.000 281.682 C 239.450 281.666,238.595 281.849,238.100 282.088 M164.600 284.347 C 165.260 284.756,165.890 285.011,165.999 284.913 C 166.303 284.642,164.732 283.600,164.024 283.602 C 163.664 283.603,163.908 283.919,164.600 284.347 M233.646 284.354 C 233.232 284.768,232.243 285.322,231.449 285.584 C 230.656 285.846,229.870 286.297,229.703 286.587 C 229.536 286.877,228.770 287.413,228.000 287.778 C 225.879 288.785,224.021 289.860,223.272 290.512 C 222.903 290.835,221.928 291.315,221.106 291.579 C 220.284 291.842,219.500 292.238,219.365 292.457 C 219.229 292.677,218.732 293.012,218.259 293.203 C 217.651 293.448,217.590 293.557,218.051 293.575 C 218.409 293.589,218.918 293.339,219.183 293.020 C 219.448 292.702,220.325 292.229,221.132 291.970 C 221.939 291.711,222.870 291.273,223.200 290.996 C 223.530 290.719,224.520 290.106,225.400 289.632 C 226.280 289.158,227.720 288.332,228.600 287.798 C 229.480 287.263,230.958 286.454,231.883 286.001 C 232.809 285.548,233.683 284.990,233.824 284.761 C 233.966 284.531,234.468 284.188,234.941 283.997 C 235.626 283.721,235.658 283.646,235.100 283.625 C 234.715 283.611,234.061 283.939,233.646 284.354 M167.900 286.088 C 168.395 286.327,168.800 286.655,168.800 286.818 C 168.800 286.980,169.485 287.387,170.323 287.722 C 171.160 288.057,172.082 288.617,172.372 288.966 C 172.661 289.315,173.121 289.600,173.393 289.600 C 173.666 289.600,174.551 290.050,175.362 290.600 C 176.172 291.150,176.942 291.600,177.072 291.600 C 177.589 291.600,175.159 289.942,173.823 289.384 C 173.041 289.057,172.400 288.626,172.400 288.426 C 172.400 288.226,171.792 287.861,171.048 287.616 C 170.305 287.371,169.377 286.817,168.986 286.385 C 168.596 285.953,167.989 285.612,167.638 285.627 C 167.196 285.646,167.276 285.787,167.900 286.088 M178.000 291.891 C 178.330 292.017,179.029 292.453,179.554 292.860 C 180.079 293.267,180.799 293.586,181.154 293.568 C 181.699 293.542,181.706 293.501,181.200 293.309 C 180.870 293.183,180.171 292.747,179.646 292.340 C 179.121 291.933,178.401 291.614,178.046 291.632 C 177.501 291.658,177.494 291.699,178.000 291.891 M182.800 293.988 C 183.350 294.164,184.340 294.597,185.000 294.951 C 185.660 295.305,186.470 295.591,186.800 295.585 C 187.130 295.580,186.500 295.132,185.400 294.591 C 184.300 294.050,183.040 293.621,182.600 293.638 C 181.943 293.663,181.979 293.726,182.800 293.988 M214.400 294.295 C 213.630 294.659,212.640 295.084,212.200 295.239 C 211.499 295.486,211.489 295.525,212.120 295.560 C 212.516 295.582,213.415 295.303,214.117 294.939 C 214.820 294.576,215.846 294.141,216.397 293.974 C 217.199 293.730,217.239 293.665,216.600 293.650 C 216.160 293.640,215.170 293.930,214.400 294.295 M191.400 296.286 C 196.027 297.146,203.163 297.147,207.800 296.288 L 211.400 295.622 207.800 295.911 C 203.179 296.282,195.544 296.281,191.200 295.909 L 187.800 295.617 191.400 296.286 " stroke="none" fill="#a6a304" fill-rule="evenodd"></path><path id="path4" d="M193.200 90.238 C 189.842 90.531,182.213 92.054,179.200 93.033 C 177.550 93.569,175.948 94.006,175.640 94.004 C 175.332 94.002,174.162 94.435,173.040 94.968 C 167.471 97.609,164.842 98.957,163.200 100.013 C 162.210 100.650,160.860 101.471,160.200 101.837 C 156.797 103.725,148.406 111.964,145.288 116.479 C 142.881 119.964,142.375 120.805,141.007 123.600 C 140.199 125.250,139.299 127.050,139.007 127.600 C 138.715 128.150,138.200 129.590,137.864 130.800 C 137.528 132.010,136.979 133.720,136.644 134.600 C 136.309 135.480,136.024 136.650,136.011 137.200 C 135.998 137.750,135.614 139.910,135.157 142.000 C 134.539 144.826,134.258 147.974,134.063 154.280 C 133.769 163.752,133.726 163.895,131.348 163.234 C 128.172 162.353,121.095 163.101,118.400 164.603 C 117.850 164.910,116.747 165.522,115.948 165.964 C 113.487 167.325,110.886 170.286,109.300 173.532 L 107.800 176.600 107.818 182.000 L 107.836 187.400 109.343 190.514 C 110.839 193.606,114.906 198.304,117.750 200.224 C 118.382 200.651,119.582 201.450,120.416 202.000 C 121.250 202.550,122.767 203.585,123.787 204.300 C 124.807 205.016,126.127 205.859,126.721 206.174 C 130.434 208.147,130.913 210.432,128.515 214.735 C 126.911 217.612,125.642 219.580,124.758 220.560 C 124.451 220.900,123.660 221.918,123.000 222.823 C 121.688 224.622,115.153 231.172,114.073 231.772 C 113.703 231.977,112.379 232.968,111.131 233.973 C 108.622 235.993,105.515 238.000,104.897 238.000 C 104.678 238.000,104.295 238.244,104.047 238.543 C 103.799 238.842,102.022 239.866,100.098 240.818 C 91.669 244.989,88.865 248.373,88.513 254.800 C 88.147 261.473,91.546 266.160,100.400 271.190 C 102.046 272.126,105.753 273.688,107.659 274.250 C 108.837 274.597,109.980 275.022,110.200 275.195 C 110.420 275.367,111.230 275.640,112.000 275.802 C 114.668 276.363,115.375 277.013,117.141 280.528 C 121.357 288.922,126.076 291.180,141.000 291.949 C 147.289 292.272,149.490 292.536,151.290 293.180 C 152.550 293.631,153.943 294.000,154.386 294.000 C 155.089 294.000,157.022 294.935,162.800 298.070 C 163.570 298.488,165.010 299.361,166.000 300.011 C 166.990 300.660,168.520 301.558,169.400 302.006 C 170.280 302.454,171.450 303.060,172.000 303.353 C 188.193 311.983,213.459 311.895,227.600 303.161 C 227.930 302.957,228.920 302.430,229.800 301.991 C 230.680 301.551,232.210 300.659,233.200 300.008 C 235.253 298.658,236.938 297.680,239.800 296.179 C 240.900 295.602,242.250 294.878,242.800 294.571 C 243.350 294.263,244.177 294.009,244.637 294.006 C 245.098 294.003,246.538 293.630,247.837 293.177 C 249.678 292.536,251.923 292.267,258.000 291.957 C 273.011 291.191,280.165 287.650,282.152 280.000 C 282.618 278.207,284.530 276.428,286.634 275.831 C 303.929 270.926,312.169 262.991,310.417 252.930 C 309.805 249.412,306.278 244.000,304.598 244.000 C 304.323 244.000,303.896 243.756,303.648 243.458 C 303.401 243.160,301.534 242.069,299.499 241.034 C 297.465 239.999,294.990 238.629,294.000 237.990 C 293.010 237.352,291.660 236.527,291.000 236.158 C 290.340 235.789,289.260 235.064,288.600 234.547 C 287.940 234.030,286.970 233.290,286.445 232.904 C 285.504 232.209,281.752 228.844,279.383 226.569 C 275.888 223.211,271.259 216.619,269.686 212.761 C 268.230 209.187,269.192 207.938,277.200 203.000 C 278.410 202.254,279.670 201.400,280.000 201.103 C 280.330 200.805,281.096 200.251,281.702 199.871 C 291.440 193.762,294.618 180.275,288.466 171.159 C 284.372 165.094,274.692 161.281,268.151 163.157 C 265.914 163.798,265.201 162.428,265.197 157.474 C 265.176 131.717,255.987 112.926,237.598 101.037 C 236.609 100.398,235.350 99.583,234.800 99.226 C 232.110 97.481,225.679 94.741,220.800 93.262 C 212.657 90.792,201.217 89.539,193.200 90.238 M207.203 91.204 C 207.971 91.426,210.714 91.871,213.297 92.193 C 215.880 92.514,218.400 93.039,218.897 93.358 C 219.394 93.677,220.865 94.132,222.167 94.368 C 223.469 94.604,224.819 95.055,225.167 95.369 C 225.515 95.683,226.655 96.155,227.700 96.417 C 228.745 96.680,229.600 97.030,229.600 97.194 C 229.600 97.359,230.455 97.877,231.500 98.347 C 232.545 98.817,234.210 99.738,235.200 100.394 C 236.190 101.050,237.450 101.804,238.000 102.069 C 238.550 102.334,239.360 102.874,239.800 103.269 C 240.240 103.664,241.994 105.145,243.698 106.561 C 246.804 109.140,252.215 115.063,253.691 117.500 C 254.125 118.215,254.641 118.800,254.840 118.800 C 255.038 118.800,255.200 119.045,255.200 119.344 C 255.200 119.643,255.675 120.588,256.256 121.444 C 256.836 122.299,257.495 123.539,257.720 124.200 C 257.944 124.860,258.459 125.829,258.864 126.354 C 259.269 126.879,259.600 127.691,259.600 128.160 C 259.600 128.628,259.968 129.698,260.418 130.537 C 260.867 131.377,261.479 133.354,261.776 134.932 C 262.074 136.509,262.584 138.520,262.911 139.400 C 263.320 140.502,263.660 144.302,264.003 151.600 C 264.624 164.787,264.379 164.205,269.145 163.853 C 273.620 163.524,279.526 164.369,281.034 165.556 C 281.625 166.020,282.326 166.400,282.592 166.400 C 283.176 166.400,287.600 170.618,287.600 171.176 C 287.600 171.392,287.944 171.891,288.365 172.284 C 288.785 172.678,289.429 174.170,289.796 175.600 C 290.162 177.030,290.628 178.371,290.831 178.580 C 291.311 179.075,291.311 184.925,290.831 185.420 C 290.628 185.629,290.162 186.970,289.796 188.400 C 289.429 189.830,288.785 191.322,288.365 191.716 C 287.944 192.109,287.600 192.632,287.600 192.878 C 287.600 193.670,279.088 201.600,278.237 201.600 C 277.996 201.601,277.314 202.006,276.719 202.500 C 276.124 202.995,274.702 203.940,273.559 204.600 C 268.794 207.350,266.712 210.433,268.574 211.979 C 268.890 212.241,269.260 212.961,269.395 213.578 C 269.531 214.196,270.082 215.299,270.621 216.028 C 271.159 216.758,271.602 217.545,271.605 217.778 C 271.636 220.192,287.159 235.444,290.743 236.582 C 291.214 236.732,291.600 237.028,291.600 237.241 C 291.600 237.454,292.365 237.993,293.300 238.439 C 295.788 239.624,297.730 240.696,298.309 241.203 C 298.589 241.448,299.432 241.905,300.183 242.219 C 302.666 243.256,307.600 246.946,307.600 247.765 C 307.600 247.976,307.969 248.541,308.419 249.021 C 310.539 251.276,310.335 259.078,308.069 262.436 C 306.532 264.713,301.174 269.600,300.214 269.600 C 299.962 269.600,299.170 270.032,298.454 270.560 C 297.739 271.088,296.552 271.633,295.817 271.770 C 295.082 271.908,294.268 272.277,294.009 272.589 C 293.750 272.901,292.522 273.367,291.281 273.625 C 290.039 273.883,288.390 274.433,287.617 274.847 C 286.844 275.261,285.880 275.600,285.475 275.600 C 284.298 275.600,281.754 278.453,281.440 280.125 C 281.288 280.936,281.000 281.600,280.801 281.600 C 280.601 281.600,280.143 282.220,279.784 282.978 C 279.026 284.575,275.516 288.000,274.637 288.000 C 274.309 288.000,273.889 288.269,273.706 288.597 C 273.168 289.557,265.397 290.821,256.600 291.378 C 249.994 291.797,248.273 292.035,246.722 292.743 C 245.689 293.214,244.486 293.600,244.048 293.600 C 243.117 293.600,242.139 294.022,239.400 295.603 C 238.300 296.239,236.635 297.121,235.700 297.565 C 234.765 298.009,234.000 298.531,234.000 298.725 C 234.000 298.920,233.325 299.377,232.500 299.741 C 230.948 300.426,229.606 301.161,227.200 302.645 C 226.430 303.119,225.274 303.630,224.632 303.779 C 223.989 303.928,223.020 304.398,222.478 304.825 C 221.936 305.251,221.014 305.600,220.431 305.600 C 219.847 305.600,218.656 305.966,217.785 306.412 C 216.886 306.873,214.329 307.487,211.876 307.831 C 209.498 308.165,207.102 308.609,206.550 308.819 C 205.256 309.311,193.366 309.317,192.449 308.826 C 192.064 308.620,189.730 308.170,187.261 307.826 C 184.792 307.482,182.373 306.952,181.886 306.650 C 181.399 306.347,180.145 305.895,179.100 305.644 C 178.056 305.394,176.616 304.832,175.900 304.396 C 175.185 303.960,174.320 303.602,173.978 303.601 C 173.635 303.601,172.758 303.159,172.028 302.621 C 171.299 302.082,170.184 301.528,169.551 301.389 C 168.918 301.250,168.400 300.964,168.400 300.754 C 168.400 300.544,167.635 300.016,166.700 299.582 C 165.765 299.147,164.190 298.255,163.200 297.600 C 162.210 296.945,160.655 296.061,159.744 295.637 C 158.833 295.213,157.975 294.683,157.837 294.460 C 157.699 294.237,156.554 293.841,155.293 293.581 C 154.032 293.321,152.463 292.833,151.808 292.496 C 150.979 292.071,148.111 291.724,142.408 291.359 C 132.976 290.756,126.442 289.643,125.123 288.414 C 124.643 287.966,124.007 287.600,123.711 287.600 C 123.095 287.600,120.400 285.025,120.400 284.436 C 120.400 284.221,120.068 283.810,119.661 283.523 C 119.255 283.235,118.687 282.284,118.400 281.408 C 117.401 278.365,115.565 276.272,113.229 275.514 C 112.066 275.136,110.909 274.662,110.658 274.460 C 110.406 274.259,109.217 273.886,108.016 273.633 C 106.815 273.380,105.555 272.925,105.216 272.623 C 104.877 272.322,103.843 271.873,102.917 271.626 C 101.991 271.380,101.116 270.988,100.973 270.756 C 100.829 270.524,99.967 269.986,99.056 269.561 C 93.633 267.029,88.800 260.433,88.800 255.565 C 88.800 251.726,92.223 245.945,95.500 244.251 C 96.215 243.882,96.800 243.418,96.800 243.222 C 96.800 243.025,97.318 242.750,97.951 242.611 C 98.584 242.472,99.699 241.918,100.428 241.379 C 101.158 240.841,101.977 240.400,102.247 240.400 C 102.517 240.400,103.273 239.950,103.927 239.400 C 104.581 238.850,105.360 238.400,105.658 238.400 C 105.956 238.399,106.723 237.949,107.362 237.400 C 108.001 236.850,108.698 236.400,108.909 236.400 C 109.121 236.400,109.884 235.905,110.604 235.300 C 111.324 234.695,112.389 233.840,112.971 233.400 C 117.065 230.305,123.446 224.013,124.436 222.093 C 124.746 221.492,125.315 220.765,125.700 220.477 C 126.085 220.190,126.400 219.717,126.400 219.426 C 126.400 219.136,126.699 218.651,127.063 218.349 C 127.428 218.047,128.016 217.170,128.370 216.400 C 128.724 215.630,129.351 214.497,129.764 213.883 C 131.566 211.200,129.777 205.734,127.058 205.615 C 126.870 205.607,126.217 205.195,125.608 204.700 C 124.999 204.205,123.902 203.440,123.170 203.000 C 121.114 201.765,120.693 201.481,119.156 200.300 C 118.369 199.695,117.610 199.200,117.470 199.200 C 116.521 199.200,110.958 192.593,110.330 190.720 C 110.086 189.994,109.597 189.067,109.243 188.659 C 107.843 187.047,108.103 177.678,109.637 174.495 C 110.823 172.035,112.130 170.038,113.233 169.000 C 113.467 168.780,114.069 168.197,114.572 167.704 C 115.074 167.211,116.096 166.525,116.843 166.180 C 117.589 165.834,118.619 165.314,119.132 165.023 C 120.690 164.139,127.046 163.500,130.303 163.900 C 134.368 164.399,134.244 164.657,134.533 155.164 C 134.664 150.854,134.973 146.804,135.220 146.164 C 135.466 145.524,135.917 142.887,136.222 140.305 C 136.526 137.722,137.037 135.202,137.357 134.705 C 137.676 134.207,138.155 132.675,138.421 131.300 C 138.687 129.925,139.056 128.800,139.241 128.800 C 139.426 128.800,139.864 127.813,140.215 126.607 C 140.566 125.401,141.036 124.302,141.259 124.163 C 141.483 124.025,141.987 123.164,142.378 122.250 C 142.770 121.336,143.385 120.344,143.745 120.045 C 144.105 119.747,144.407 119.299,144.416 119.051 C 144.425 118.803,144.965 117.977,145.616 117.215 C 146.267 116.453,146.800 115.695,146.800 115.529 C 146.800 115.184,147.262 114.665,151.747 109.977 C 153.549 108.094,155.332 106.435,155.711 106.289 C 156.090 106.144,156.400 105.857,156.400 105.652 C 156.400 105.309,156.957 104.903,160.586 102.600 C 161.279 102.160,162.106 101.565,162.423 101.279 C 163.107 100.660,165.077 99.574,167.700 98.367 C 168.745 97.887,169.600 97.359,169.600 97.194 C 169.600 97.030,170.455 96.680,171.500 96.417 C 172.545 96.155,173.685 95.683,174.033 95.369 C 174.381 95.055,175.731 94.604,177.033 94.368 C 178.335 94.132,179.806 93.678,180.302 93.358 C 180.799 93.039,183.229 92.514,185.702 92.190 C 188.176 91.867,190.830 91.440,191.600 91.242 C 193.548 90.741,205.501 90.712,207.203 91.204 M192.678 102.022 C 191.181 102.196,189.734 102.523,189.461 102.749 C 189.188 102.976,187.713 103.279,186.183 103.425 C 184.607 103.574,182.500 104.103,181.325 104.644 C 180.183 105.170,178.813 105.600,178.279 105.600 C 177.745 105.600,176.872 105.943,176.340 106.361 C 175.807 106.780,174.604 107.330,173.665 107.582 C 172.727 107.835,171.859 108.302,171.737 108.621 C 171.614 108.939,171.303 109.200,171.044 109.200 C 170.583 109.200,167.118 111.294,165.264 112.693 C 164.366 113.371,157.863 119.722,156.335 121.414 C 155.931 121.862,155.600 122.438,155.600 122.694 C 155.600 122.951,155.314 123.320,154.965 123.516 C 154.263 123.909,152.841 126.109,151.644 128.656 C 151.216 129.567,150.689 130.421,150.473 130.555 C 150.257 130.688,149.855 131.743,149.580 132.899 C 149.304 134.054,148.819 135.399,148.502 135.886 C 148.185 136.374,147.753 138.174,147.542 139.886 C 147.331 141.599,146.852 143.810,146.479 144.800 C 145.881 146.386,145.800 148.538,145.803 162.917 L 145.806 179.233 144.903 179.460 C 143.790 179.739,142.004 179.321,141.194 178.591 C 140.860 178.291,139.780 177.862,138.794 177.638 C 137.807 177.413,136.287 176.863,135.415 176.415 C 134.544 175.967,133.385 175.600,132.841 175.600 C 132.297 175.600,130.733 175.320,129.367 174.977 C 124.618 173.786,120.117 176.258,119.546 180.370 C 118.961 184.584,120.722 187.760,125.615 191.315 C 128.020 193.062,129.463 194.008,130.284 194.374 C 130.770 194.591,131.512 195.090,131.932 195.484 C 132.353 195.878,133.628 196.740,134.766 197.400 C 135.904 198.060,137.287 199.005,137.838 199.500 C 138.390 199.995,139.006 200.400,139.208 200.400 C 139.410 200.400,140.503 201.300,141.639 202.400 L 143.703 204.400 143.495 207.500 C 143.357 209.559,143.004 211.132,142.444 212.185 C 141.980 213.056,141.600 214.157,141.600 214.631 C 141.600 215.104,141.266 215.921,140.858 216.446 C 140.450 216.971,139.901 218.061,139.638 218.868 C 139.374 219.675,138.907 220.545,138.600 220.800 C 138.293 221.055,137.838 221.880,137.589 222.632 C 137.341 223.384,136.969 224.000,136.763 224.000 C 136.556 224.000,136.075 224.675,135.694 225.500 C 135.312 226.325,134.685 227.235,134.300 227.523 C 133.915 227.810,133.600 228.227,133.600 228.448 C 133.600 228.958,132.438 230.239,127.166 235.541 C 123.178 239.553,121.805 240.809,119.546 242.514 C 119.026 242.906,117.900 243.761,117.045 244.414 C 116.190 245.066,115.335 245.600,115.145 245.600 C 114.955 245.600,114.479 245.915,114.088 246.300 C 113.696 246.685,112.751 247.326,111.988 247.724 C 111.224 248.122,109.700 248.967,108.600 249.603 C 107.500 250.239,105.880 251.103,105.000 251.523 C 99.637 254.087,100.139 259.313,105.869 260.571 C 106.564 260.724,107.223 261.083,107.333 261.368 C 107.442 261.654,108.312 262.087,109.266 262.330 C 110.220 262.573,111.713 263.138,112.585 263.586 C 113.456 264.034,114.806 264.406,115.585 264.413 C 116.363 264.419,117.900 264.868,119.000 265.409 C 120.100 265.950,121.496 266.394,122.101 266.396 C 124.405 266.404,127.272 269.911,127.567 273.082 C 128.090 278.725,130.414 279.808,143.200 280.369 C 149.201 280.632,151.722 280.893,152.600 281.342 C 153.260 281.679,155.041 282.153,156.559 282.395 C 158.112 282.642,159.752 283.176,160.313 283.617 C 160.860 284.048,161.699 284.400,162.176 284.400 C 162.654 284.400,163.655 284.850,164.400 285.400 C 165.145 285.950,165.977 286.400,166.247 286.400 C 166.517 286.400,167.260 286.838,167.896 287.374 C 168.533 287.910,169.537 288.469,170.127 288.617 C 170.717 288.766,171.200 289.051,171.200 289.252 C 171.200 289.453,171.695 289.831,172.300 290.093 C 172.905 290.355,173.909 290.981,174.531 291.484 C 175.153 291.988,175.973 292.400,176.353 292.400 C 176.733 292.400,177.655 292.850,178.400 293.400 C 179.145 293.950,180.127 294.400,180.581 294.400 C 181.035 294.400,182.215 294.825,183.203 295.343 C 184.191 295.862,186.003 296.400,187.229 296.539 C 188.455 296.677,190.075 297.101,190.829 297.481 C 192.835 298.493,205.365 298.518,208.000 297.516 C 208.990 297.139,210.947 296.651,212.348 296.430 C 213.750 296.209,215.308 295.759,215.811 295.430 C 216.314 295.100,217.568 294.618,218.597 294.359 C 219.626 294.100,220.558 293.654,220.667 293.368 C 220.777 293.083,221.437 292.728,222.133 292.581 C 222.830 292.434,223.760 292.002,224.200 291.622 C 224.640 291.241,225.572 290.704,226.271 290.428 C 226.970 290.152,227.853 289.583,228.233 289.163 C 228.613 288.744,229.234 288.400,229.613 288.400 C 229.992 288.400,230.547 288.105,230.845 287.745 C 231.144 287.385,232.156 286.762,233.094 286.360 C 234.032 285.957,234.800 285.479,234.800 285.297 C 234.800 285.115,235.653 284.738,236.695 284.459 C 237.737 284.180,238.888 283.682,239.253 283.352 C 239.618 283.022,241.116 282.582,242.581 282.374 C 244.047 282.167,245.810 281.705,246.499 281.349 C 247.455 280.855,249.751 280.614,256.176 280.333 C 269.240 279.763,271.004 278.779,272.186 271.400 C 272.573 268.989,272.804 268.400,273.365 268.400 C 273.646 268.400,274.189 268.054,274.571 267.632 C 274.953 267.210,276.196 266.649,277.333 266.387 C 278.470 266.125,279.789 265.667,280.264 265.370 C 280.739 265.072,282.212 264.655,283.537 264.441 C 284.863 264.228,286.364 263.786,286.874 263.459 C 287.383 263.132,288.604 262.653,289.586 262.394 C 290.568 262.135,291.807 261.580,292.340 261.161 C 292.872 260.743,293.530 260.400,293.802 260.400 C 295.125 260.400,298.400 257.138,298.400 255.819 C 298.400 254.522,295.500 251.600,294.212 251.600 C 293.961 251.600,293.158 251.159,292.428 250.621 C 291.699 250.082,290.584 249.528,289.951 249.389 C 289.318 249.250,288.800 248.962,288.800 248.748 C 288.800 248.534,288.215 248.091,287.500 247.762 C 286.785 247.434,285.570 246.729,284.800 246.195 C 281.344 243.800,280.723 243.353,279.807 242.600 C 279.272 242.160,278.106 241.260,277.217 240.600 C 275.539 239.354,269.272 233.232,267.701 231.304 C 267.206 230.697,266.261 229.546,265.601 228.747 C 264.940 227.948,264.400 227.103,264.400 226.870 C 264.400 226.636,264.085 226.210,263.700 225.923 C 263.315 225.635,262.674 224.770,262.276 224.000 C 261.878 223.230,261.034 221.700,260.399 220.600 C 258.799 217.825,258.489 217.158,258.227 215.928 C 258.102 215.338,257.739 214.596,257.422 214.279 C 255.666 212.523,255.465 203.794,257.151 202.503 C 257.508 202.229,258.160 201.733,258.600 201.399 C 259.040 201.066,259.940 200.370,260.600 199.853 C 261.260 199.336,262.385 198.613,263.100 198.246 C 263.815 197.879,264.400 197.439,264.400 197.267 C 264.400 197.095,265.120 196.636,266.000 196.248 C 266.880 195.860,267.600 195.393,267.600 195.210 C 267.600 195.028,268.095 194.678,268.700 194.434 C 275.442 191.711,281.862 183.522,279.894 180.154 C 279.622 179.689,278.995 178.571,278.500 177.670 C 277.776 176.352,277.268 175.942,275.900 175.572 C 274.965 175.319,273.808 174.928,273.329 174.704 C 272.850 174.479,271.950 174.421,271.329 174.573 C 270.708 174.726,268.906 175.081,267.325 175.363 C 265.744 175.644,264.001 176.170,263.451 176.530 C 262.901 176.890,261.587 177.379,260.532 177.615 C 259.476 177.852,258.327 178.304,257.977 178.621 C 257.194 179.330,253.997 179.768,253.257 179.267 C 252.591 178.816,252.581 172.927,253.239 168.351 C 254.105 162.322,252.717 141.530,251.230 138.266 C 250.773 137.264,250.400 135.966,250.400 135.381 C 250.400 134.796,249.966 133.481,249.436 132.459 C 248.905 131.437,248.267 130.150,248.016 129.600 C 247.589 128.660,247.016 127.689,244.936 124.376 C 243.706 122.419,242.662 121.227,238.715 117.283 C 233.954 112.525,232.932 111.648,231.818 111.369 C 231.290 111.236,230.767 110.892,230.657 110.604 C 230.546 110.316,229.813 109.868,229.028 109.609 C 228.243 109.350,227.600 108.987,227.600 108.802 C 227.600 108.617,226.745 108.151,225.700 107.765 C 224.655 107.380,223.527 106.835,223.194 106.555 C 222.860 106.275,221.724 105.852,220.668 105.615 C 219.613 105.379,218.314 104.900,217.782 104.552 C 217.250 104.203,215.327 103.739,213.508 103.521 C 211.688 103.302,209.990 102.951,209.734 102.741 C 208.581 101.795,198.340 101.363,192.678 102.022 M208.600 103.783 C 214.923 104.744,218.875 105.772,221.600 107.167 C 222.370 107.561,223.540 108.014,224.200 108.173 C 224.860 108.332,225.670 108.700,226.000 108.990 C 226.330 109.280,227.259 109.851,228.064 110.258 C 232.842 112.678,238.694 117.766,242.328 122.659 C 243.448 124.166,244.538 125.601,244.749 125.848 C 244.961 126.094,245.794 127.624,246.600 129.248 C 247.406 130.871,248.394 132.836,248.796 133.614 C 249.197 134.392,249.658 135.922,249.821 137.014 C 249.984 138.106,250.482 139.990,250.929 141.200 C 251.691 143.263,251.752 144.524,251.906 161.400 C 252.021 174.039,252.206 179.564,252.525 179.949 C 253.163 180.720,257.678 180.260,259.333 179.255 C 260.030 178.832,261.223 178.354,261.984 178.193 C 262.745 178.032,264.070 177.534,264.927 177.087 C 266.896 176.061,273.712 175.618,275.586 176.394 C 278.398 177.559,279.674 181.597,278.208 184.693 C 277.283 186.647,274.327 190.000,273.529 190.000 C 273.379 190.000,272.995 190.262,272.675 190.582 C 272.355 190.902,271.559 191.487,270.907 191.882 C 269.673 192.629,268.838 193.175,265.267 195.570 C 264.095 196.356,262.556 197.360,261.847 197.800 C 253.923 202.723,252.637 207.129,256.767 215.200 C 257.161 215.970,257.602 217.090,257.747 217.690 C 257.892 218.289,258.458 219.439,259.005 220.245 C 259.552 221.052,260.000 221.934,260.000 222.207 C 260.000 222.479,260.253 222.912,260.563 223.169 C 260.873 223.426,261.421 224.259,261.782 225.018 C 262.143 225.778,262.597 226.400,262.792 226.400 C 262.987 226.400,263.259 226.757,263.398 227.194 C 264.274 229.953,277.609 243.263,280.660 244.423 C 281.177 244.619,281.600 244.961,281.600 245.182 C 281.600 245.403,282.335 245.992,283.234 246.492 C 284.133 246.991,285.406 247.698,286.062 248.063 C 286.718 248.428,287.558 248.975,287.928 249.279 C 288.297 249.583,289.306 250.184,290.168 250.616 C 296.104 253.584,297.634 254.719,297.342 255.938 C 297.202 256.522,297.068 257.002,297.044 257.004 C 297.020 257.006,296.277 257.566,295.394 258.247 C 294.511 258.929,293.353 259.624,292.821 259.793 C 292.289 259.962,291.050 260.528,290.067 261.050 C 289.085 261.573,287.993 262.001,287.640 262.002 C 287.288 262.004,286.462 262.285,285.805 262.628 C 285.148 262.971,283.386 263.508,281.890 263.823 C 280.393 264.138,278.681 264.641,278.084 264.942 C 277.488 265.242,276.500 265.608,275.890 265.754 C 272.952 266.459,271.035 269.653,269.789 275.924 C 269.389 277.939,269.457 277.925,250.800 279.759 C 247.608 280.073,244.460 280.598,243.800 280.927 C 243.140 281.255,241.790 281.653,240.800 281.811 C 239.810 281.969,238.550 282.413,238.000 282.799 C 237.450 283.185,236.427 283.624,235.728 283.776 C 235.028 283.927,234.239 284.312,233.975 284.630 C 233.711 284.949,232.753 285.573,231.847 286.017 C 230.941 286.461,229.480 287.263,228.600 287.798 C 227.720 288.332,226.280 289.158,225.400 289.632 C 224.520 290.106,223.530 290.719,223.200 290.996 C 222.870 291.273,221.939 291.711,221.132 291.970 C 220.325 292.229,219.463 292.683,219.218 292.979 C 218.972 293.274,218.111 293.640,217.304 293.792 C 216.497 293.943,215.199 294.392,214.419 294.789 C 209.041 297.526,190.117 297.529,184.735 294.794 C 183.929 294.384,182.623 293.928,181.832 293.780 C 181.040 293.631,179.990 293.195,179.497 292.810 C 179.003 292.425,178.176 291.977,177.659 291.815 C 177.141 291.653,176.081 291.088,175.303 290.560 C 174.525 290.032,173.666 289.600,173.393 289.600 C 173.121 289.600,172.661 289.315,172.372 288.966 C 172.082 288.617,171.160 288.057,170.323 287.722 C 169.485 287.387,168.798 286.998,168.797 286.857 C 168.794 286.632,167.569 285.978,161.200 282.799 C 160.430 282.415,159.170 281.978,158.400 281.828 C 157.630 281.678,156.010 281.212,154.800 280.793 C 153.383 280.302,149.965 279.806,145.200 279.400 C 129.227 278.038,129.136 278.001,128.365 272.553 C 127.691 267.799,124.033 264.933,117.200 263.808 C 116.210 263.644,114.645 263.171,113.722 262.756 C 112.799 262.340,111.791 262.000,111.482 262.000 C 111.172 262.000,110.126 261.579,109.158 261.063 C 108.189 260.548,106.722 259.904,105.898 259.632 C 105.074 259.360,104.400 258.982,104.400 258.791 C 104.400 258.600,103.905 258.208,103.300 257.919 C 100.841 256.746,102.434 253.307,105.941 252.213 C 106.459 252.052,107.519 251.488,108.297 250.960 C 109.075 250.432,109.879 250.000,110.083 250.000 C 110.286 250.000,111.026 249.595,111.727 249.099 C 113.163 248.083,114.083 247.486,115.752 246.489 C 117.097 245.685,125.179 239.278,127.152 237.452 C 129.123 235.628,136.033 227.237,137.200 225.251 C 137.750 224.316,138.587 222.950,139.060 222.216 C 139.533 221.483,140.053 220.459,140.215 219.941 C 140.377 219.424,140.833 218.587,141.227 218.081 C 141.622 217.576,142.070 216.593,142.223 215.897 C 142.375 215.201,142.882 213.905,143.349 213.016 C 144.052 211.677,144.198 210.701,144.199 207.322 L 144.200 203.243 142.729 201.895 C 141.920 201.153,139.966 199.658,138.386 198.573 C 134.641 196.000,134.334 195.797,130.800 193.540 C 125.401 190.093,123.438 188.503,121.261 185.816 C 119.530 183.679,119.787 180.034,121.829 177.741 L 123.201 176.200 127.901 176.211 C 131.887 176.220,132.843 176.349,134.200 177.062 C 135.080 177.524,136.430 178.034,137.200 178.194 C 137.970 178.355,139.153 178.821,139.828 179.231 C 141.800 180.428,145.186 180.664,146.390 179.689 C 147.555 178.745,147.561 178.603,146.845 168.200 C 146.356 161.101,146.525 152.241,147.210 149.000 C 147.396 148.120,147.753 145.516,148.004 143.213 C 148.254 140.910,148.786 138.300,149.184 137.413 C 149.583 136.526,150.039 135.170,150.198 134.400 C 150.356 133.630,150.806 132.460,151.198 131.800 C 151.589 131.140,152.044 130.150,152.209 129.600 C 152.374 129.050,152.935 128.091,153.455 127.469 C 153.975 126.847,154.400 126.149,154.400 125.918 C 154.400 125.441,159.546 119.198,161.387 117.443 C 163.993 114.958,167.082 112.400,167.476 112.400 C 167.704 112.400,168.569 111.860,169.400 111.200 C 170.231 110.540,171.115 110.000,171.366 110.000 C 171.617 110.000,172.267 109.686,172.811 109.302 C 174.081 108.406,177.654 106.892,180.144 106.194 C 181.214 105.894,182.654 105.386,183.344 105.065 C 184.035 104.745,187.030 104.178,190.000 103.806 C 192.970 103.434,195.475 103.055,195.567 102.965 C 196.044 102.493,202.965 102.928,208.600 103.783 " stroke="none" fill="#747474" fill-rule="evenodd"></path></g></svg>